<?xml version="1.0" standalone="yes"?>

<svg version="1.1" viewBox="0.0 0.0 960.0 540.0" fill="none" stroke="none" stroke-linecap="square" stroke-miterlimit="10" xmlns="http://www.w3.org/2000/svg" xmlns:xlink="http://www.w3.org/1999/xlink"><clipPath id="ged83c0238_0_0.0"><path d="m0 0l960.0 0l0 540.0l-960.0 0l0 -540.0z" clip-rule="nonzero"></path></clipPath><g clip-path="url(#ged83c0238_0_0.0)"><path fill="#ffffff" d="m0 0l960.0 0l0 540.0l-960.0 0z" fill-rule="nonzero"></path><path fill="#eeeeee" d="m181.26462 110.078674l583.8408 0l0 411.9311l-583.8408 0z" fill-rule="nonzero"></path><path stroke="#595959" stroke-width="1.0" stroke-linejoin="round" stroke-linecap="butt" d="m181.26462 110.078674l583.8408 0l0 411.9311l-583.8408 0z" fill-rule="nonzero"></path><path fill="#000000" d="m368.02097 327.76422l0 -22.90625l3.109375 0l12.03125 17.984375l0 -17.984375l2.90625 0l0 22.90625l-3.109375 0l-12.03125 -18.0l0 18.0l-2.90625 0zm34.140625 -5.34375l2.90625 0.359375q-0.6875 2.546875 -2.546875 3.953125q-1.859375 1.40625 -4.75 1.40625q-3.640625 0 -5.78125 -2.234375q-2.125 -2.25 -2.125 -6.296875q0 -4.1875 2.15625 -6.5q2.15625 -2.3125 5.59375 -2.3125q3.328125 0 5.4375 2.265625q2.109375 2.265625 2.109375 6.375q0 0.25 -0.015625 0.75l-12.375 0q0.15625 2.734375 1.546875 4.1875q1.390625 1.453125 3.46875 1.453125q1.546875 0 2.640625 -0.8125q1.09375 -0.8125 1.734375 -2.59375zm-9.234375 -4.546875l9.265625 0q-0.1875 -2.09375 -1.0625 -3.140625q-1.34375 -1.625 -3.484375 -1.625q-1.9375 0 -3.265625 1.296875q-1.3125 1.296875 -1.453125 3.46875zm26.546875 9.890625l0 -2.4375q-1.9375 2.8125 -5.265625 2.8125q-1.46875 0 -2.75 -0.5625q-1.265625 -0.5625 -1.890625 -1.40625q-0.609375 -0.859375 -0.859375 -2.09375q-0.171875 -0.828125 -0.171875 -2.625l0 -10.28125l2.8125 0l0 9.203125q0 2.203125 0.171875 2.96875q0.265625 1.109375 1.125 1.75q0.859375 0.625 2.125 0.625q1.265625 0 2.375 -0.640625q1.109375 -0.65625 1.5625 -1.765625q0.46875 -1.125 0.46875 -3.25l0 -8.890625l2.8125 0l0 16.59375l-2.515625 0zm6.890625 0l0 -16.59375l2.53125 0l0 2.515625q0.96875 -1.765625 1.78125 -2.328125q0.828125 -0.5625 1.8125 -0.5625q1.421875 0 2.890625 0.90625l-0.96875 2.609375q-1.03125 -0.609375 -2.0625 -0.609375q-0.921875 0 -1.65625 0.5625q-0.734375 0.546875 -1.046875 1.53125q-0.46875 1.5 -0.46875 3.28125l0 8.6875l-2.8125 0zm21.515625 -2.046875q-1.5625 1.328125 -3.015625 1.875q-1.4375 0.546875 -3.09375 0.546875q-2.734375 0 -4.203125 -1.328125q-1.46875 -1.34375 -1.46875 -3.421875q0 -1.21875 0.546875 -2.21875q0.5625 -1.015625 1.453125 -1.625q0.90625 -0.609375 2.03125 -0.921875q0.828125 -0.21875 2.5 -0.421875q3.40625 -0.40625 5.015625 -0.96875q0.015625 -0.578125 0.015625 -0.734375q0 -1.71875 -0.796875 -2.421875q-1.078125 -0.953125 -3.203125 -0.953125q-1.984375 0 -2.9375 0.703125q-0.9375 0.6875 -1.390625 2.453125l-2.75 -0.375q0.375 -1.765625 1.234375 -2.84375q0.859375 -1.09375 2.484375 -1.671875q1.625 -0.59375 3.765625 -0.59375q2.125 0 3.453125 0.5q1.328125 0.5 1.953125 1.265625q0.625 0.75 0.875 1.90625q0.140625 0.71875 0.140625 2.59375l0 3.75q0 3.921875 0.171875 4.96875q0.1875 1.03125 0.71875 1.984375l-2.9375 0q-0.4375 -0.875 -0.5625 -2.046875zm-0.234375 -6.28125q-1.53125 0.625 -4.59375 1.0625q-1.734375 0.25 -2.453125 0.5625q-0.71875 0.3125 -1.109375 0.921875q-0.390625 0.59375 -0.390625 1.328125q0 1.125 0.84375 1.875q0.859375 0.75 2.5 0.75q1.625 0 2.890625 -0.703125q1.265625 -0.71875 1.859375 -1.953125q0.453125 -0.953125 0.453125 -2.8125l0 -1.03125zm7.140625 8.328125l0 -22.90625l2.8125 0l0 22.90625l-2.8125 0zm16.0625 0l0 -16.59375l2.53125 0l0 2.359375q1.828125 -2.734375 5.28125 -2.734375q1.5 0 2.75 0.546875q1.265625 0.53125 1.890625 1.40625q0.625 0.875 0.875 2.078125q0.15625 0.78125 0.15625 2.734375l0 10.203125l-2.8125 0l0 -10.09375q0 -1.71875 -0.328125 -2.5625q-0.328125 -0.859375 -1.171875 -1.359375q-0.828125 -0.515625 -1.953125 -0.515625q-1.796875 0 -3.109375 1.140625q-1.296875 1.140625 -1.296875 4.328125l0 9.0625l-2.8125 0zm29.15625 -5.34375l2.90625 0.359375q-0.6875 2.546875 -2.546875 3.953125q-1.859375 1.40625 -4.75 1.40625q-3.640625 0 -5.78125 -2.234375q-2.125 -2.25 -2.125 -6.296875q0 -4.1875 2.15625 -6.5q2.15625 -2.3125 5.59375 -2.3125q3.328125 0 5.4375 2.265625q2.109375 2.265625 2.109375 6.375q0 0.25 -0.015625 0.75l-12.375 0q0.15625 2.734375 1.546875 4.1875q1.390625 1.453125 3.46875 1.453125q1.546875 0 2.640625 -0.8125q1.09375 -0.8125 1.734375 -2.59375zm-9.234375 -4.546875l9.265625 0q-0.1875 -2.09375 -1.0625 -3.140625q-1.34375 -1.625 -3.484375 -1.625q-1.9375 0 -3.265625 1.296875q-1.3125 1.296875 -1.453125 3.46875zm21.81253 7.375l0.40625 2.484375q-1.1875305 0.25 -2.1250305 0.25q-1.53125 0 -2.375 -0.484375q-0.84375 -0.484375 -1.1875 -1.265625q-0.34375 -0.796875 -0.34375 -3.328125l0 -9.546875l-2.0625 0l0 -2.1875l2.0625 0l0 -4.109375l2.796875 -1.6875l0 5.796875l2.8281555 0l0 2.1875l-2.8281555 0l0 9.703125q0 1.203125 0.140625 1.546875q0.15625 0.34375 0.484375 0.546875q0.34375 0.203125 0.96875 0.203125q0.46875 0 1.2344055 -0.109375zm5.8125 2.515625l-5.078125 -16.59375l2.90625 0l2.640625 9.578125l0.984375 3.5625q0.0625 -0.265625 0.859375 -3.421875l2.640625 -9.71875l2.890625 0l2.484375 9.625l0.828125 3.171875l0.953125 -3.203125l2.84375 -9.59375l2.734375 0l-5.1875 16.59375l-2.921875 0l-2.640625 -9.9375l-0.640625 -2.828125l-3.359375 12.765625l-2.9375 0zm19.0 -8.296875q0 -4.609375 2.5625 -6.828125q2.140625 -1.84375 5.21875 -1.84375q3.421875 0 5.59375 2.25q2.171875 2.234375 2.171875 6.1875q0 3.203125 -0.96875 5.046875q-0.953125 1.828125 -2.796875 2.84375q-1.828125 1.015625 -4.0 1.015625q-3.484375 0 -5.640625 -2.234375q-2.140625 -2.234375 -2.140625 -6.4375zm2.890625 0q0 3.1875 1.390625 4.78125q1.390625 1.578125 3.5 1.578125q2.09375 0 3.484375 -1.59375q1.390625 -1.59375 1.390625 -4.859375q0 -3.078125 -1.40625 -4.65625q-1.390625 -1.59375 -3.46875 -1.59375q-2.109375 0 -3.5 1.578125q-1.390625 1.578125 -1.390625 4.765625zm15.921875 8.296875l0 -16.59375l2.53125 0l0 2.515625q0.96875 -1.765625 1.78125 -2.328125q0.828125 -0.5625 1.8125 -0.5625q1.421875 0 2.890625 0.90625l-0.96875 2.609375q-1.03125 -0.609375 -2.0625 -0.609375q-0.921875 0 -1.65625 0.5625q-0.734375 0.546875 -1.046875 1.53125q-0.46875 1.5 -0.46875 3.28125l0 8.6875l-2.8125 0zm10.703125 0l0 -22.90625l2.8125 0l0 13.0625l6.65625 -6.75l3.640625 0l-6.34375 6.15625l6.984375 10.4375l-3.46875 0l-5.484375 -8.484375l-1.984375 1.90625l0 6.578125l-2.8125 0z" fill-rule="nonzero"></path><path fill="#38761d" d="m144.8645 166.28276l0 0c0 -19.299515 13.241089 -34.94487 29.574799 -34.94487l0 0c7.8437347 0 15.366196 3.6816711 20.912552 10.235107c5.546356 6.5534363 8.662262 15.441803 8.662262 24.709763l0 0c0 19.29953 -13.241089 34.944885 -29.574814 34.944885l0 0c-16.33371 0 -29.574799 -15.645355 -29.574799 -34.944885z" fill-rule="nonzero"></path><path stroke="#595959" stroke-width="1.0" stroke-linejoin="round" stroke-linecap="butt" d="m144.8645 166.28276l0 0c0 -19.299515 13.241089 -34.94487 29.574799 -34.94487l0 0c7.8437347 0 15.366196 3.6816711 20.912552 10.235107c5.546356 6.5534363 8.662262 15.441803 8.662262 24.709763l0 0c0 19.29953 -13.241089 34.944885 -29.574814 34.944885l0 0c-16.33371 0 -29.574799 -15.645355 -29.574799 -34.944885z" fill-rule="nonzero"></path><path fill="#38761d" d="m144.8645 284.91934l0 0c0 -19.2995 13.241089 -34.94487 29.574799 -34.94487l0 0c7.8437347 0 15.366196 3.6816864 20.912552 10.235123c5.546356 6.5534363 8.662262 15.441803 8.662262 24.709747l0 0c0 19.29953 -13.241089 34.944885 -29.574814 34.944885l0 0c-16.33371 0 -29.574799 -15.645355 -29.574799 -34.944885z" fill-rule="nonzero"></path><path stroke="#595959" stroke-width="1.0" stroke-linejoin="round" stroke-linecap="butt" d="m144.8645 284.91934l0 0c0 -19.2995 13.241089 -34.94487 29.574799 -34.94487l0 0c7.8437347 0 15.366196 3.6816864 20.912552 10.235123c5.546356 6.5534363 8.662262 15.441803 8.662262 24.709747l0 0c0 19.29953 -13.241089 34.944885 -29.574814 34.944885l0 0c-16.33371 0 -29.574799 -15.645355 -29.574799 -34.944885z" fill-rule="nonzero"></path><path fill="#38761d" d="m144.8645 403.55594l0 0c0 -19.29953 13.241089 -34.944885 29.574799 -34.944885l0 0c7.8437347 0 15.366196 3.6817017 20.912552 10.235138c5.546356 6.5534363 8.662262 15.441803 8.662262 24.709747l0 0c0 19.29953 -13.241089 34.944885 -29.574814 34.944885l0 0c-16.33371 0 -29.574799 -15.645355 -29.574799 -34.944885z" fill-rule="nonzero"></path><path stroke="#595959" stroke-width="1.0" stroke-linejoin="round" stroke-linecap="butt" d="m144.8645 403.55594l0 0c0 -19.29953 13.241089 -34.944885 29.574799 -34.944885l0 0c7.8437347 0 15.366196 3.6817017 20.912552 10.235138c5.546356 6.5534363 8.662262 15.441803 8.662262 24.709747l0 0c0 19.29953 -13.241089 34.944885 -29.574814 34.944885l0 0c-16.33371 0 -29.574799 -15.645355 -29.574799 -34.944885z" fill-rule="nonzero"></path><path fill="#38761d" d="m144.8645 487.0828l0 0c0 -19.29953 13.241089 -34.944885 29.574799 -34.944885l0 0c7.8437347 0 15.366196 3.6817017 20.912552 10.235138c5.546356 6.5534363 8.662262 15.441803 8.662262 24.709747l0 0c0 19.29953 -13.241089 34.944916 -29.574814 34.944916l0 0c-16.33371 0 -29.574799 -15.645386 -29.574799 -34.944916z" fill-rule="nonzero"></path><path stroke="#595959" stroke-width="1.0" stroke-linejoin="round" stroke-linecap="butt" d="m144.8645 487.0828l0 0c0 -19.29953 13.241089 -34.944885 29.574799 -34.944885l0 0c7.8437347 0 15.366196 3.6817017 20.912552 10.235138c5.546356 6.5534363 8.662262 15.441803 8.662262 24.709747l0 0c0 19.29953 -13.241089 34.944916 -29.574814 34.944916l0 0c-16.33371 0 -29.574799 -15.645386 -29.574799 -34.944916z" fill-rule="nonzero"></path><path fill="#cc4125" d="m749.815 138.7365l0 0c0 -19.299522 13.241089 -34.944878 29.574768 -34.944878l0 0c7.84375 0 15.366211 3.6816864 20.912537 10.235123c5.5463867 6.5534363 8.6622925 15.441795 8.6622925 24.709755l0 0c0 19.29953 -13.241089 34.944885 -29.57483 34.944885l0 0c-16.33368 0 -29.574768 -15.645355 -29.574768 -34.944885z" fill-rule="nonzero"></path><path stroke="#595959" stroke-width="1.0" stroke-linejoin="round" stroke-linecap="butt" d="m749.815 138.7365l0 0c0 -19.299522 13.241089 -34.944878 29.574768 -34.944878l0 0c7.84375 0 15.366211 3.6816864 20.912537 10.235123c5.5463867 6.5534363 8.6622925 15.441795 8.6622925 24.709755l0 0c0 19.29953 -13.241089 34.944885 -29.57483 34.944885l0 0c-16.33368 0 -29.574768 -15.645355 -29.574768 -34.944885z" fill-rule="nonzero"></path><path fill="#cc4125" d="m749.815 284.91934l0 0c0 -19.2995 13.241089 -34.94487 29.574768 -34.94487l0 0c7.84375 0 15.366211 3.6816864 20.912537 10.235123c5.5463867 6.5534363 8.6622925 15.441803 8.6622925 24.709747l0 0c0 19.29953 -13.241089 34.944885 -29.57483 34.944885l0 0c-16.33368 0 -29.574768 -15.645355 -29.574768 -34.944885z" fill-rule="nonzero"></path><path stroke="#595959" stroke-width="1.0" stroke-linejoin="round" stroke-linecap="butt" d="m749.815 284.91934l0 0c0 -19.2995 13.241089 -34.94487 29.574768 -34.94487l0 0c7.84375 0 15.366211 3.6816864 20.912537 10.235123c5.5463867 6.5534363 8.6622925 15.441803 8.6622925 24.709747l0 0c0 19.29953 -13.241089 34.944885 -29.57483 34.944885l0 0c-16.33368 0 -29.574768 -15.645355 -29.574768 -34.944885z" fill-rule="nonzero"></path><path fill="#cc4125" d="m749.815 487.63138l0 0c0 -19.2995 13.241089 -34.944855 29.574768 -34.944855l0 0c7.84375 0 15.366211 3.6816711 20.912537 10.235107c5.5463867 6.5534363 8.6622925 15.441803 8.6622925 24.709747l0 0c0 19.29953 -13.241089 34.944916 -29.57483 34.944916l0 0c-16.33368 0 -29.574768 -15.645386 -29.574768 -34.944916z" fill-rule="nonzero"></path><path stroke="#595959" stroke-width="1.0" stroke-linejoin="round" stroke-linecap="butt" d="m749.815 487.63138l0 0c0 -19.2995 13.241089 -34.944855 29.574768 -34.944855l0 0c7.84375 0 15.366211 3.6816711 20.912537 10.235107c5.5463867 6.5534363 8.6622925 15.441803 8.6622925 24.709747l0 0c0 19.29953 -13.241089 34.944916 -29.57483 34.944916l0 0c-16.33368 0 -29.574768 -15.645386 -29.574768 -34.944916z" fill-rule="nonzero"></path><path fill="#000000" fill-opacity="0.0" d="m77.414696 24.03412l307.0866 0l0 69.88976l-307.0866 0z" fill-rule="nonzero"></path><path fill="#000000" d="m89.39907 63.754124l0 -22.90625l3.03125 0l0 22.90625l-3.03125 0zm8.015625 0l0 -16.59375l2.53125 0l0 2.359375q1.828125 -2.734375 5.28125 -2.734375q1.5 0 2.75 0.546875q1.265625 0.53125 1.890625 1.40625q0.625 0.875 0.875 2.078125q0.15625 0.78125 0.15625 2.734375l0 10.203125l-2.8125 0l0 -10.09375q0 -1.71875 -0.328125 -2.5625q-0.328125 -0.859375 -1.171875 -1.359375q-0.828125 -0.515625 -1.953125 -0.515625q-1.796875 0 -3.109375 1.140625q-1.296875 1.140625 -1.296875 4.328125l0 9.0625l-2.8125 0zm17.796875 6.359371l0 -22.953121l2.5625 0l0 2.15625q0.90625 -1.265625 2.046875 -1.890625q1.140625 -0.640625 2.765625 -0.640625q2.125 0 3.75 1.09375q1.625 1.09375 2.4531326 3.09375q0.828125 1.984375 0.828125 4.359375q0 2.546875 -0.921875 4.59375q-0.9062576 2.03125 -2.6562576 3.125q-1.734375 1.0781212 -3.65625 1.0781212q-1.40625 0 -2.53125 -0.5937462q-1.109375 -0.59375 -1.828125 -1.5l0 8.078121l-2.8125 0zm2.546875 -14.562496q0 3.203125 1.296875 4.734375q1.296875 1.53125 3.140625 1.53125q1.875 0 3.203125 -1.578125q1.34375 -1.59375 1.34375 -4.921875q0 -3.171875 -1.3125 -4.75q-1.296875 -1.578125 -3.109375 -1.578125q-1.796875 0 -3.1875 1.6875q-1.375 1.671875 -1.375 4.875zm26.125008 8.203125l0 -2.4375q-1.9375 2.8124962 -5.265625 2.8124962q-1.46875 0 -2.75 -0.5624962q-1.265625 -0.5625 -1.890625 -1.40625q-0.609375 -0.859375 -0.859375 -2.09375q-0.171875 -0.828125 -0.171875 -2.625l0 -10.28125l2.8125 0l0 9.203125q0 2.203125 0.171875 2.96875q0.265625 1.109375 1.125 1.75q0.859375 0.625 2.125 0.625q1.265625 0 2.375 -0.640625q1.109375 -0.65625 1.5625 -1.765625q0.46875 -1.125 0.46875 -3.25l0 -8.890625l2.8125 0l0 16.59375l-2.515625 0zm13.0625 -2.515625l0.40625 2.484375q-1.1875 0.25 -2.125 0.25q-1.53125 0 -2.375 -0.484375q-0.84375 -0.484375 -1.1875 -1.265625q-0.34375 -0.796875 -0.34375 -3.328125l0 -9.546875l-2.0625 0l0 -2.1875l2.0625 0l0 -4.109375l2.796875 -1.6875l0 5.796875l2.828125 0l0 2.1875l-2.828125 0l0 9.703125q0 1.203125 0.140625 1.546875q0.15625 0.34375 0.484375 0.546875q0.34375 0.203125 0.96875 0.203125q0.46875 0 1.234375 -0.109375zm11.640625 2.515625l0 -16.59375l2.53125 0l0 2.359375q1.828125 -2.734375 5.28125 -2.734375q1.5 0 2.75 0.546875q1.265625 0.53125 1.890625 1.40625q0.625 0.875 0.875 2.078125q0.15625 0.78125 0.15625 2.734375l0 10.203125l-2.8125 0l0 -10.09375q0 -1.71875 -0.328125 -2.5625q-0.328125 -0.859375 -1.171875 -1.359375q-0.828125 -0.515625 -1.953125 -0.515625q-1.796875 0 -3.109375 1.140625q-1.296875 1.140625 -1.296875 4.328125l0 9.0625l-2.8125 0zm16.75 -8.296875q0 -4.609375 2.5625 -6.828125q2.140625 -1.84375 5.21875 -1.84375q3.421875 0 5.59375 2.25q2.171875 2.234375 2.171875 6.1875q0 3.203125 -0.96875 5.046875q-0.953125 1.828125 -2.796875 2.84375q-1.828125 1.0156212 -4.0 1.0156212q-3.484375 0 -5.640625 -2.2343712q-2.140625 -2.234375 -2.140625 -6.4375zm2.890625 0q0 3.1875 1.390625 4.78125q1.390625 1.578125 3.5 1.578125q2.09375 0 3.484375 -1.59375q1.390625 -1.59375 1.390625 -4.859375q0 -3.078125 -1.40625 -4.65625q-1.390625 -1.59375 -3.46875 -1.59375q-2.109375 0 -3.5 1.578125q-1.390625 1.578125 -1.390625 4.765625zm26.71875 8.296875l0 -2.09375q-1.578125 2.4687462 -4.640625 2.4687462q-1.984375 0 -3.65625 -1.0937462q-1.65625 -1.09375 -2.578125 -3.046875q-0.90625 -1.96875 -0.90625 -4.515625q0 -2.484375 0.828125 -4.5q0.828125 -2.03125 2.484375 -3.109375q1.65625 -1.078125 3.703125 -1.078125q1.5 0 2.671875 0.640625q1.171875 0.625 1.90625 1.640625l0 -8.21875l2.796875 0l0 22.90625l-2.609375 0zm-8.890625 -8.28125q0 3.1875 1.34375 4.765625q1.34375 1.578125 3.171875 1.578125q1.84375 0 3.125 -1.5q1.296875 -1.515625 1.296875 -4.609375q0 -3.40625 -1.3125 -5.0q-1.3125 -1.59375 -3.234375 -1.59375q-1.875 0 -3.140625 1.53125q-1.25 1.53125 -1.25 4.828125zm27.28125 2.9375l2.90625 0.359375q-0.6875 2.546875 -2.546875 3.953125q-1.859375 1.4062462 -4.75 1.4062462q-3.640625 0 -5.78125 -2.2343712q-2.125 -2.25 -2.125 -6.296875q0 -4.1875 2.15625 -6.5q2.15625 -2.3125 5.59375 -2.3125q3.328125 0 5.4375 2.265625q2.109375 2.265625 2.109375 6.375q0 0.25 -0.015625 0.75l-12.375 0q0.15625 2.734375 1.546875 4.1875q1.390625 1.453125 3.46875 1.453125q1.546875 0 2.640625 -0.8125q1.09375 -0.8125 1.734375 -2.59375zm-9.234375 -4.546875l9.265625 0q-0.1875 -2.09375 -1.0625 -3.140625q-1.34375 -1.625 -3.484375 -1.625q-1.9375 0 -3.265625 1.296875q-1.3125 1.296875 -1.453125 3.46875zm14.546875 4.9375l2.78125 -0.4375q0.234375 1.671875 1.296875 2.5625q1.078125 0.890625 3.0 0.890625q1.9375 0 2.875 -0.78125q0.9375 -0.796875 0.9375 -1.859375q0 -0.953125 -0.828125 -1.5q-0.578125 -0.375 -2.875 -0.953125q-3.09375 -0.78125 -4.296875 -1.34375q-1.1875 -0.578125 -1.8125 -1.578125q-0.609375 -1.015625 -0.609375 -2.234375q0 -1.109375 0.5 -2.046875q0.515625 -0.953125 1.390625 -1.578125q0.65625 -0.484375 1.78125 -0.8125q1.140625 -0.34375 2.4375 -0.34375q1.953125 0 3.421875 0.5625q1.484375 0.5625 2.1875 1.53125q0.703125 0.953125 0.96875 2.5625l-2.75 0.375q-0.1875 -1.28125 -1.09375 -2.0q-0.890625 -0.71875 -2.53125 -0.71875q-1.9375 0 -2.765625 0.640625q-0.828125 0.640625 -0.828125 1.5q0 0.546875 0.34375 0.984375q0.34375 0.453125 1.078125 0.75q0.421875 0.15625 2.484375 0.71875q2.984375 0.796875 4.15625 1.3125q1.1875 0.5 1.859375 1.46875q0.671875 0.96875 0.671875 2.40625q0 1.40625 -0.828125 2.65625q-0.8125 1.234375 -2.359375 1.921875q-1.546875 0.6718712 -3.5 0.6718712q-3.234375 0 -4.9375 -1.3437462q-1.6875 -1.34375 -2.15625 -3.984375z" fill-rule="nonzero"></path><path fill="#000000" fill-opacity="0.0" d="m632.27594 29.751024l294.2362 0l0 58.456696l-294.2362 0z" fill-rule="nonzero"></path><path fill="#000000" d="m642.8228 58.314777q0 -5.703125 3.0625 -8.921875q3.0625 -3.234375 7.90625 -3.234375q3.171875 0 5.71875 1.515625q2.546875 1.515625 3.875 4.234375q1.34375 2.703125 1.34375 6.140625q0 3.484375 -1.40625 6.234371q-1.40625 2.75 -3.984375 4.171875q-2.578125 1.40625 -5.5625 1.40625q-3.234375 0 -5.78125 -1.5625q-2.546875 -1.5625 -3.859375 -4.265625q-1.3125 -2.7031212 -1.3125 -5.718746zm3.125 0.046875q0 4.140625 2.21875 6.531246q2.234375 2.375 5.59375 2.375q3.421875 0 5.625 -2.40625q2.21875 -2.4062462 2.21875 -6.828121q0 -2.796875 -0.953125 -4.875q-0.9375 -2.09375 -2.765625 -3.234375q-1.8125 -1.15625 -4.078125 -1.15625q-3.21875 0 -5.546875 2.21875q-2.3125 2.203125 -2.3125 7.375zm33.203125 11.109371l0 -2.4375q-1.9375 2.8125 -5.265625 2.8125q-1.46875 0 -2.75 -0.5625q-1.265625 -0.5625 -1.890625 -1.40625q-0.609375 -0.859375 -0.859375 -2.09375q-0.171875 -0.828125 -0.171875 -2.6249962l0 -10.28125l2.8125 0l0 9.203125q0 2.2031212 0.171875 2.9687462q0.265625 1.109375 1.125 1.75q0.859375 0.625 2.125 0.625q1.265625 0 2.375 -0.640625q1.109375 -0.65625 1.5625 -1.765625q0.46875 -1.1249962 0.46875 -3.2499962l0 -8.890625l2.8125 0l0 16.593746l-2.515625 0zm13.0625 -2.515625l0.40625 2.484375q-1.1875 0.25 -2.125 0.25q-1.53125 0 -2.375 -0.484375q-0.84375 -0.484375 -1.1875 -1.265625q-0.34375 -0.796875 -0.34375 -3.328125l0 -9.546871l-2.0625 0l0 -2.1875l2.0625 0l0 -4.109375l2.796875 -1.6875l0 5.796875l2.828125 0l0 2.1875l-2.828125 0l0 9.703121q0 1.203125 0.140625 1.546875q0.15625 0.34375 0.484375 0.546875q0.34375 0.203125 0.96875 0.203125q0.46875 0 1.234375 -0.109375zm2.75 8.875l0 -22.953121l2.5625 0l0 2.15625q0.90625 -1.265625 2.046875 -1.890625q1.140625 -0.640625 2.765625 -0.640625q2.125 0 3.75 1.09375q1.625 1.09375 2.453125 3.09375q0.828125 1.984375 0.828125 4.359375q0 2.546875 -0.921875 4.593746q-0.90625 2.03125 -2.65625 3.125q-1.734375 1.078125 -3.65625 1.078125q-1.40625 0 -2.53125 -0.59375q-1.109375 -0.59375 -1.828125 -1.5l0 8.078125l-2.8125 0zm2.546875 -14.562496q0 3.2031212 1.296875 4.734371q1.296875 1.53125 3.140625 1.53125q1.875 0 3.203125 -1.578125q1.34375 -1.59375 1.34375 -4.921871q0 -3.171875 -1.3125 -4.75q-1.296875 -1.578125 -3.109375 -1.578125q-1.796875 0 -3.1875 1.6875q-1.375 1.671875 -1.375 4.875zm26.125 8.203121l0 -2.4375q-1.9375 2.8125 -5.265625 2.8125q-1.46875 0 -2.75 -0.5625q-1.265625 -0.5625 -1.890625 -1.40625q-0.609375 -0.859375 -0.859375 -2.09375q-0.171875 -0.828125 -0.171875 -2.6249962l0 -10.28125l2.8125 0l0 9.203125q0 2.2031212 0.171875 2.9687462q0.265625 1.109375 1.125 1.75q0.859375 0.625 2.125 0.625q1.265625 0 2.375 -0.640625q1.109375 -0.65625 1.5625 -1.765625q0.46875 -1.1249962 0.46875 -3.2499962l0 -8.890625l2.8125 0l0 16.593746l-2.515625 0zm13.0625 -2.515625l0.40625 2.484375q-1.1875 0.25 -2.125 0.25q-1.53125 0 -2.375 -0.484375q-0.84375 -0.484375 -1.1875 -1.265625q-0.34375 -0.796875 -0.34375 -3.328125l0 -9.546871l-2.0625 0l0 -2.1875l2.0625 0l0 -4.109375l2.796875 -1.6875l0 5.796875l2.828125 0l0 2.1875l-2.828125 0l0 9.703121q0 1.203125 0.140625 1.546875q0.15625 0.34375 0.484375 0.546875q0.34375 0.203125 0.96875 0.203125q0.46875 0 1.234375 -0.109375zm11.640625 2.515625l0 -16.593746l2.53125 0l0 2.359375q1.828125 -2.734375 5.28125 -2.734375q1.5 0 2.75 0.546875q1.265625 0.53125 1.890625 1.40625q0.625 0.875 0.875 2.078125q0.15625 0.78125 0.15625 2.734375l0 10.203121l-2.8125 0l0 -10.093746q0 -1.71875 -0.328125 -2.5625q-0.328125 -0.859375 -1.171875 -1.359375q-0.828125 -0.515625 -1.953125 -0.515625q-1.796875 0 -3.109375 1.140625q-1.296875 1.140625 -1.296875 4.328125l0 9.062496l-2.8125 0zm16.75 -8.296871q0 -4.609375 2.5625 -6.828125q2.140625 -1.84375 5.21875 -1.84375q3.421875 0 5.59375 2.25q2.171875 2.234375 2.171875 6.1875q0 3.2031212 -0.96875 5.046871q-0.953125 1.828125 -2.796875 2.84375q-1.828125 1.015625 -4.0 1.015625q-3.484375 0 -5.640625 -2.234375q-2.140625 -2.234375 -2.140625 -6.437496zm2.890625 0q0 3.1874962 1.390625 4.781246q1.390625 1.578125 3.5 1.578125q2.09375 0 3.484375 -1.59375q1.390625 -1.59375 1.390625 -4.859371q0 -3.078125 -1.40625 -4.65625q-1.390625 -1.59375 -3.46875 -1.59375q-2.109375 0 -3.5 1.578125q-1.390625 1.578125 -1.390625 4.765625zm26.71875 8.296871l0 -2.09375q-1.578125 2.46875 -4.640625 2.46875q-1.984375 0 -3.65625 -1.09375q-1.65625 -1.09375 -2.578125 -3.046875q-0.90625 -1.9687462 -0.90625 -4.515621q0 -2.484375 0.828125 -4.5q0.828125 -2.03125 2.484375 -3.109375q1.65625 -1.078125 3.703125 -1.078125q1.5 0 2.671875 0.640625q1.171875 0.625 1.90625 1.640625l0 -8.21875l2.796875 0l0 22.906246l-2.609375 0zm-8.890625 -8.281246q0 3.1874962 1.34375 4.765621q1.34375 1.578125 3.171875 1.578125q1.84375 0 3.125 -1.5q1.296875 -1.515625 1.296875 -4.609371q0 -3.40625 -1.3125 -5.0q-1.3125 -1.59375 -3.234375 -1.59375q-1.875 0 -3.140625 1.53125q-1.25 1.53125 -1.25 4.828125zm27.28125 2.9374962l2.90625 0.359375q-0.6875 2.546875 -2.546875 3.953125q-1.859375 1.40625 -4.75 1.40625q-3.640625 0 -5.78125 -2.234375q-2.125 -2.25 -2.125 -6.296871q0 -4.1875 2.15625 -6.5q2.15625 -2.3125 5.59375 -2.3125q3.328125 0 5.4375 2.265625q2.109375 2.265625 2.109375 6.375q0 0.25 -0.015625 0.75l-12.375 0q0.15625 2.7343712 1.546875 4.187496q1.390625 1.453125 3.46875 1.453125q1.546875 0 2.640625 -0.8125q1.09375 -0.8125 1.734375 -2.59375zm-9.234375 -4.546871l9.265625 0q-0.1875 -2.09375 -1.0625 -3.140625q-1.34375 -1.625 -3.484375 -1.625q-1.9375 0 -3.265625 1.296875q-1.3125 1.296875 -1.453125 3.46875zm14.546875 4.937496l2.78125 -0.4375q0.234375 1.671875 1.296875 2.5625q1.078125 0.890625 3.0 0.890625q1.9375 0 2.875 -0.78125q0.9375 -0.796875 0.9375 -1.859375q0 -0.9531212 -0.828125 -1.4999962q-0.578125 -0.375 -2.875 -0.953125q-3.09375 -0.78125 -4.296875 -1.34375q-1.1875 -0.578125 -1.8125 -1.578125q-0.609375 -1.015625 -0.609375 -2.234375q0 -1.109375 0.5 -2.046875q0.515625 -0.953125 1.390625 -1.578125q0.65625 -0.484375 1.78125 -0.8125q1.140625 -0.34375 2.4375 -0.34375q1.953125 0 3.421875 0.5625q1.484375 0.5625 2.1875 1.53125q0.703125 0.953125 0.96875 2.5625l-2.75 0.375q-0.1875 -1.28125 -1.09375 -2.0q-0.890625 -0.71875 -2.53125 -0.71875q-1.9375 0 -2.765625 0.640625q-0.828125 0.640625 -0.828125 1.5q0 0.546875 0.34375 0.984375q0.34375 0.453125 1.078125 0.75q0.421875 0.15625 2.484375 0.71875q2.984375 0.796875 4.15625 1.3125q1.1875 0.5 1.859375 1.46875q0.671875 0.96875 0.671875 2.4062462q0 1.40625 -0.828125 2.65625q-0.8125 1.234375 -2.359375 1.921875q-1.546875 0.671875 -3.5 0.671875q-3.234375 0 -4.9375 -1.34375q-1.6875 -1.34375 -2.15625 -3.984375z" fill-rule="nonzero"></path><path fill="#ff9900" d="m334.42368 474.286l0 0c0 -19.29953 13.241089 -34.944885 29.574799 -34.944885l0 0c7.8437195 0 15.36618 3.6816711 20.912537 10.235107c5.546356 6.5534363 8.662262 15.441803 8.662262 24.709778l0 0c0 19.2995 -13.241089 34.944855 -29.574799 34.944855l0 0c-16.33371 0 -29.574799 -15.645355 -29.574799 -34.944855z" fill-rule="nonzero"></path><path stroke="#595959" stroke-width="1.0" stroke-linejoin="round" stroke-linecap="butt" d="m334.42368 474.286l0 0c0 -19.29953 13.241089 -34.944885 29.574799 -34.944885l0 0c7.8437195 0 15.36618 3.6816711 20.912537 10.235107c5.546356 6.5534363 8.662262 15.441803 8.662262 24.709778l0 0c0 19.2995 -13.241089 34.944855 -29.574799 34.944855l0 0c-16.33371 0 -29.574799 -15.645355 -29.574799 -34.944855z" fill-rule="nonzero"></path><path fill="#ff9900" d="m512.2 474.286l0 0c0 -19.29953 13.241089 -34.944885 29.57483 -34.944885l0 0c7.843689 0 15.366211 3.6816711 20.912537 10.235107c5.5463257 6.5534363 8.662231 15.441803 8.662231 24.709778l0 0c0 19.2995 -13.241089 34.944855 -29.574768 34.944855l0 0c-16.33374 0 -29.57483 -15.645355 -29.57483 -34.944855z" fill-rule="nonzero"></path><path stroke="#595959" stroke-width="1.0" stroke-linejoin="round" stroke-linecap="butt" d="m512.2 474.286l0 0c0 -19.29953 13.241089 -34.944885 29.57483 -34.944885l0 0c7.843689 0 15.366211 3.6816711 20.912537 10.235107c5.5463257 6.5534363 8.662231 15.441803 8.662231 24.709778l0 0c0 19.2995 -13.241089 34.944855 -29.574768 34.944855l0 0c-16.33374 0 -29.57483 -15.645355 -29.57483 -34.944855z" fill-rule="nonzero"></path><path fill="#000000" fill-opacity="0.0" d="m393.57327 474.286l118.61417 0" fill-rule="nonzero"></path><path stroke="#595959" stroke-width="1.0" stroke-linejoin="round" stroke-linecap="butt" d="m393.57327 474.286l112.6142 0" fill-rule="evenodd"></path><path fill="#595959" stroke="#595959" stroke-width="1.0" stroke-linecap="butt" d="m506.18747 475.93774l4.538086 -1.6517334l-4.538086 -1.6517334z" fill-rule="evenodd"></path></g></svg>

