<?xml version="1.0" standalone="yes"?>

<svg version="1.1" viewBox="0.0 0.0 960.0 540.0" fill="none" stroke="none" stroke-linecap="square" stroke-miterlimit="10" xmlns="http://www.w3.org/2000/svg" xmlns:xlink="http://www.w3.org/1999/xlink"><clipPath id="g11351f0497_0_0.0"><path d="m0 0l960.0 0l0 540.0l-960.0 0l0 -540.0z" clip-rule="nonzero"></path></clipPath><g clip-path="url(#g11351f0497_0_0.0)"><path fill="#eeeeee" d="m175.70062 60.9472l580.5903 0l0 411.2831l-580.5903 0z" fill-rule="nonzero"></path><path stroke="#595959" stroke-width="1.0" stroke-linejoin="round" stroke-linecap="butt" d="m175.70062 60.9472l580.5903 0l0 411.2831l-580.5903 0z" fill-rule="nonzero"></path><path fill="#38761d" d="m135.78227 123.32931l0 0c0 -19.264732 13.170593 -34.88189 29.417328 -34.88189l0 0c7.801956 0 15.284363 3.6750488 20.801193 10.216667c5.516815 6.541626 8.616135 15.413971 8.616135 24.665222l0 0c0 19.264732 -13.170593 34.88189 -29.417328 34.88189l0 0c-16.246735 0 -29.417328 -15.617157 -29.417328 -34.88189z" fill-rule="nonzero"></path><path stroke="#595959" stroke-width="1.0" stroke-linejoin="round" stroke-linecap="butt" d="m135.78227 123.32931l0 0c0 -19.264732 13.170593 -34.88189 29.417328 -34.88189l0 0c7.801956 0 15.284363 3.6750488 20.801193 10.216667c5.516815 6.541626 8.616135 15.413971 8.616135 24.665222l0 0c0 19.264732 -13.170593 34.88189 -29.417328 34.88189l0 0c-16.246735 0 -29.417328 -15.617157 -29.417328 -34.88189z" fill-rule="nonzero"></path><path fill="#38761d" d="m135.78227 241.77928l0 0c0 -19.26474 13.170593 -34.881897 29.417328 -34.881897l0 0c7.801956 0 15.284363 3.6750488 20.801193 10.216675c5.516815 6.541626 8.616135 15.413971 8.616135 24.665222l0 0c0 19.264725 -13.170593 34.88188 -29.417328 34.88188l0 0c-16.246735 0 -29.417328 -15.617157 -29.417328 -34.88188z" fill-rule="nonzero"></path><path stroke="#595959" stroke-width="1.0" stroke-linejoin="round" stroke-linecap="butt" d="m135.78227 241.77928l0 0c0 -19.26474 13.170593 -34.881897 29.417328 -34.881897l0 0c7.801956 0 15.284363 3.6750488 20.801193 10.216675c5.516815 6.541626 8.616135 15.413971 8.616135 24.665222l0 0c0 19.264725 -13.170593 34.88188 -29.417328 34.88188l0 0c-16.246735 0 -29.417328 -15.617157 -29.417328 -34.88188z" fill-rule="nonzero"></path><path fill="#38761d" d="m135.78227 360.22925l0 0c0 -19.26474 13.170593 -34.881897 29.417328 -34.881897l0 0c7.801956 0 15.284363 3.6750488 20.801193 10.216675c5.516815 6.541626 8.616135 15.413971 8.616135 24.665222l0 0c0 19.26474 -13.170593 34.881897 -29.417328 34.881897l0 0c-16.246735 0 -29.417328 -15.617157 -29.417328 -34.881897z" fill-rule="nonzero"></path><path stroke="#595959" stroke-width="1.0" stroke-linejoin="round" stroke-linecap="butt" d="m135.78227 360.22925l0 0c0 -19.26474 13.170593 -34.881897 29.417328 -34.881897l0 0c7.801956 0 15.284363 3.6750488 20.801193 10.216675c5.516815 6.541626 8.616135 15.413971 8.616135 24.665222l0 0c0 19.26474 -13.170593 34.881897 -29.417328 34.881897l0 0c-16.246735 0 -29.417328 -15.617157 -29.417328 -34.881897z" fill-rule="nonzero"></path><path fill="#38761d" d="m135.78227 443.62473l0 0c0 -19.26474 13.170593 -34.881897 29.417328 -34.881897l0 0c7.801956 0 15.284363 3.6750488 20.801193 10.216675c5.516815 6.5415955 8.616135 15.41394 8.616135 24.665222l0 0c0 19.26471 -13.170593 34.881866 -29.417328 34.881866l0 0c-16.246735 0 -29.417328 -15.617157 -29.417328 -34.881866z" fill-rule="nonzero"></path><path stroke="#595959" stroke-width="1.0" stroke-linejoin="round" stroke-linecap="butt" d="m135.78227 443.62473l0 0c0 -19.26474 13.170593 -34.881897 29.417328 -34.881897l0 0c7.801956 0 15.284363 3.6750488 20.801193 10.216675c5.516815 6.5415955 8.616135 15.41394 8.616135 24.665222l0 0c0 19.26471 -13.170593 34.881866 -29.417328 34.881866l0 0c-16.246735 0 -29.417328 -15.617157 -29.417328 -34.881866z" fill-rule="nonzero"></path><path fill="#cc4125" d="m737.3646 95.82638l0 0c0 -19.264732 13.170593 -34.88189 29.417358 -34.88189l0 0c7.801941 0 15.284363 3.6750488 20.801147 10.216667c5.5168457 6.541626 8.61615 15.413971 8.61615 24.665222l0 0c0 19.264732 -13.170593 34.88189 -29.417297 34.88189l0 0c-16.246765 0 -29.417358 -15.617157 -29.417358 -34.88189z" fill-rule="nonzero"></path><path stroke="#595959" stroke-width="1.0" stroke-linejoin="round" stroke-linecap="butt" d="m737.3646 95.82638l0 0c0 -19.264732 13.170593 -34.88189 29.417358 -34.88189l0 0c7.801941 0 15.284363 3.6750488 20.801147 10.216667c5.5168457 6.541626 8.61615 15.413971 8.61615 24.665222l0 0c0 19.264732 -13.170593 34.88189 -29.417297 34.88189l0 0c-16.246765 0 -29.417358 -15.617157 -29.417358 -34.88189z" fill-rule="nonzero"></path><path fill="#cc4125" d="m737.3646 241.77928l0 0c0 -19.26474 13.170593 -34.881897 29.417358 -34.881897l0 0c7.801941 0 15.284363 3.6750488 20.801147 10.216675c5.5168457 6.541626 8.61615 15.413971 8.61615 24.665222l0 0c0 19.264725 -13.170593 34.88188 -29.417297 34.88188l0 0c-16.246765 0 -29.417358 -15.617157 -29.417358 -34.88188z" fill-rule="nonzero"></path><path stroke="#595959" stroke-width="1.0" stroke-linejoin="round" stroke-linecap="butt" d="m737.3646 241.77928l0 0c0 -19.26474 13.170593 -34.881897 29.417358 -34.881897l0 0c7.801941 0 15.284363 3.6750488 20.801147 10.216675c5.5168457 6.541626 8.61615 15.413971 8.61615 24.665222l0 0c0 19.264725 -13.170593 34.88188 -29.417297 34.88188l0 0c-16.246765 0 -29.417358 -15.617157 -29.417358 -34.88188z" fill-rule="nonzero"></path><path fill="#cc4125" d="m737.3646 444.17242l0 0c0 -19.26471 13.170593 -34.881866 29.417358 -34.881866l0 0c7.801941 0 15.284363 3.6750488 20.801147 10.216644c5.5168457 6.541626 8.61615 15.413971 8.61615 24.665222l0 0c0 19.26474 -13.170593 34.881897 -29.417297 34.881897l0 0c-16.246765 0 -29.417358 -15.617157 -29.417358 -34.881897z" fill-rule="nonzero"></path><path stroke="#595959" stroke-width="1.0" stroke-linejoin="round" stroke-linecap="butt" d="m737.3646 444.17242l0 0c0 -19.26471 13.170593 -34.881866 29.417358 -34.881866l0 0c7.801941 0 15.284363 3.6750488 20.801147 10.216644c5.5168457 6.541626 8.61615 15.413971 8.61615 24.665222l0 0c0 19.26474 -13.170593 34.881897 -29.417297 34.881897l0 0c-16.246765 0 -29.417358 -15.617157 -29.417358 -34.881897z" fill-rule="nonzero"></path><path fill="#000000" fill-opacity="0.0" d="m194.61693 123.32931l542.7401 118.45669" fill-rule="nonzero"></path><path stroke="#595959" stroke-width="1.0" stroke-linejoin="round" stroke-linecap="butt" d="m194.61693 123.329315l539.3919 117.72591" fill-rule="evenodd"></path><path fill="#595959" stroke="#595959" stroke-width="1.0" stroke-linecap="butt" d="m734.00885 241.05522l-1.338501 0.85891724l3.258484 -0.4398651l-2.7788696 -1.7575684z" fill-rule="evenodd"></path><path fill="#000000" fill-opacity="0.0" d="m194.61693 123.32931l542.7401 -27.496063" fill-rule="nonzero"></path><path stroke="#595959" stroke-width="1.0" stroke-linejoin="round" stroke-linecap="butt" d="m194.61693 123.32931l542.7401 -27.496063" fill-rule="nonzero"></path><path fill="#000000" fill-opacity="0.0" d="m194.61693 123.32931l551.37006 296.18896" fill-rule="nonzero"></path><path stroke="#595959" stroke-width="1.0" stroke-linejoin="round" stroke-linecap="butt" d="m194.61693 123.32931l551.37006 296.18896" fill-rule="nonzero"></path><path fill="#000000" fill-opacity="0.0" d="m194.61693 241.77928l542.7401 -145.95276" fill-rule="nonzero"></path><path stroke="#595959" stroke-width="1.0" stroke-linejoin="round" stroke-linecap="butt" d="m194.61693 241.77928l542.7401 -145.95276" fill-rule="nonzero"></path><path fill="#000000" fill-opacity="0.0" d="m194.61693 241.77928l542.7401 0" fill-rule="nonzero"></path><path stroke="#595959" stroke-width="1.0" stroke-linejoin="round" stroke-linecap="butt" d="m194.61693 241.77928l542.7401 0" fill-rule="nonzero"></path><path fill="#000000" fill-opacity="0.0" d="m194.59299 360.20447l542.7716 -118.425186" fill-rule="nonzero"></path><path stroke="#595959" stroke-width="1.0" stroke-linejoin="round" stroke-linecap="butt" d="m194.59299 360.20447l542.7716 -118.425186" fill-rule="nonzero"></path><path fill="#000000" fill-opacity="0.0" d="m194.61693 241.77928l551.37006 177.73228" fill-rule="nonzero"></path><path stroke="#595959" stroke-width="1.0" stroke-linejoin="round" stroke-linecap="butt" d="m194.61693 241.77928l551.37006 177.73228" fill-rule="nonzero"></path><path fill="#000000" fill-opacity="0.0" d="m194.61693 360.22925l551.37006 59.275604" fill-rule="nonzero"></path><path stroke="#595959" stroke-width="1.0" stroke-linejoin="round" stroke-linecap="butt" d="m194.61693 360.22925l551.37006 59.275604" fill-rule="nonzero"></path><path fill="#000000" fill-opacity="0.0" d="m194.61693 360.22925l542.7401 -264.40945" fill-rule="nonzero"></path><path stroke="#595959" stroke-width="1.0" stroke-linejoin="round" stroke-linecap="butt" d="m194.61693 360.22925l542.7401 -264.40945" fill-rule="nonzero"></path><path fill="#000000" fill-opacity="0.0" d="m194.61693 443.62473l542.7401 -347.81104" fill-rule="nonzero"></path><path stroke="#595959" stroke-width="1.0" stroke-linejoin="round" stroke-linecap="butt" d="m194.61693 443.62473l542.7401 -347.81104" fill-rule="nonzero"></path><path fill="#000000" fill-opacity="0.0" d="m194.61693 443.62473l542.7401 -201.85828" fill-rule="nonzero"></path><path stroke="#595959" stroke-width="1.0" stroke-linejoin="round" stroke-linecap="butt" d="m194.61693 443.62473l542.7401 -201.85828" fill-rule="nonzero"></path><path fill="#000000" fill-opacity="0.0" d="m194.61693 443.62473l551.37006 -24.126007" fill-rule="nonzero"></path><path stroke="#595959" stroke-width="1.0" stroke-linejoin="round" stroke-linecap="butt" d="m194.61693 443.62473l551.37006 -24.126007" fill-rule="nonzero"></path></g></svg>

