<?xml version="1.0" standalone="yes"?>

<svg version="1.1" viewBox="0.0 0.0 960.0 540.0" fill="none" stroke="none" stroke-linecap="square" stroke-miterlimit="10" xmlns="http://www.w3.org/2000/svg" xmlns:xlink="http://www.w3.org/1999/xlink"><clipPath id="ged9bc17c2_0_0.0"><path d="m0 0l960.0 0l0 540.0l-960.0 0l0 -540.0z" clip-rule="nonzero"></path></clipPath><g clip-path="url(#ged9bc17c2_0_0.0)"><path fill="#ffffff" d="m0 0l960.0 0l0 540.0l-960.0 0z" fill-rule="nonzero"></path><path fill="#eeeeee" d="m179.4297 61.976498l585.35016 0l0 409.26367l-585.35016 0z" fill-rule="nonzero"></path><path stroke="#595959" stroke-width="1.0" stroke-linejoin="round" stroke-linecap="butt" d="m179.4297 61.976498l585.35016 0l0 409.26367l-585.35016 0z" fill-rule="nonzero"></path><path fill="#38761d" d="m139.1841 124.050354l0 0c0 -19.169067 13.276352 -34.708664 29.65355 -34.708664l0 0c7.864609 0 15.4071045 3.6567917 20.968216 10.165932c5.5611267 6.5091324 8.685333 15.337418 8.685333 24.542732l0 0c0 19.169067 -13.276352 34.708664 -29.65355 34.708664l0 0c-16.377197 0 -29.65355 -15.539597 -29.65355 -34.708664z" fill-rule="nonzero"></path><path stroke="#595959" stroke-width="1.0" stroke-linejoin="round" stroke-linecap="butt" d="m139.1841 124.050354l0 0c0 -19.169067 13.276352 -34.708664 29.65355 -34.708664l0 0c7.864609 0 15.4071045 3.6567917 20.968216 10.165932c5.5611267 6.5091324 8.685333 15.337418 8.685333 24.542732l0 0c0 19.169067 -13.276352 34.708664 -29.65355 34.708664l0 0c-16.377197 0 -29.65355 -15.539597 -29.65355 -34.708664z" fill-rule="nonzero"></path><path fill="#38761d" d="m139.1841 241.91873l0 0c0 -19.169067 13.276352 -34.708664 29.65355 -34.708664l0 0c7.864609 0 15.4071045 3.656784 20.968216 10.165924c5.5611267 6.50914 8.685333 15.337418 8.685333 24.54274l0 0c0 19.169067 -13.276352 34.70865 -29.65355 34.70865l0 0c-16.377197 0 -29.65355 -15.539581 -29.65355 -34.70865z" fill-rule="nonzero"></path><path stroke="#595959" stroke-width="1.0" stroke-linejoin="round" stroke-linecap="butt" d="m139.1841 241.91873l0 0c0 -19.169067 13.276352 -34.708664 29.65355 -34.708664l0 0c7.864609 0 15.4071045 3.656784 20.968216 10.165924c5.5611267 6.50914 8.685333 15.337418 8.685333 24.54274l0 0c0 19.169067 -13.276352 34.70865 -29.65355 34.70865l0 0c-16.377197 0 -29.65355 -15.539581 -29.65355 -34.70865z" fill-rule="nonzero"></path><path fill="#38761d" d="m139.1841 359.7871l0 0c0 -19.169067 13.276352 -34.70868 29.65355 -34.70868l0 0c7.864609 0 15.4071045 3.6567993 20.968216 10.165955c5.5611267 6.5091248 8.685333 15.337402 8.685333 24.542725l0 0c0 19.169067 -13.276352 34.70865 -29.65355 34.70865l0 0c-16.377197 0 -29.65355 -15.539581 -29.65355 -34.70865z" fill-rule="nonzero"></path><path stroke="#595959" stroke-width="1.0" stroke-linejoin="round" stroke-linecap="butt" d="m139.1841 359.7871l0 0c0 -19.169067 13.276352 -34.70868 29.65355 -34.70868l0 0c7.864609 0 15.4071045 3.6567993 20.968216 10.165955c5.5611267 6.5091248 8.685333 15.337402 8.685333 24.542725l0 0c0 19.169067 -13.276352 34.70865 -29.65355 34.70865l0 0c-16.377197 0 -29.65355 -15.539581 -29.65355 -34.70865z" fill-rule="nonzero"></path><path fill="#38761d" d="m139.1841 442.77307l0 0c0 -19.169037 13.276352 -34.70865 29.65355 -34.70865l0 0c7.864609 0 15.4071045 3.6567993 20.968216 10.165924c5.5611267 6.5091553 8.685333 15.337433 8.685333 24.542725l0 0c0 19.169067 -13.276352 34.70868 -29.65355 34.70868l0 0c-16.377197 0 -29.65355 -15.539612 -29.65355 -34.70868z" fill-rule="nonzero"></path><path stroke="#595959" stroke-width="1.0" stroke-linejoin="round" stroke-linecap="butt" d="m139.1841 442.77307l0 0c0 -19.169037 13.276352 -34.70865 29.65355 -34.70865l0 0c7.864609 0 15.4071045 3.6567993 20.968216 10.165924c5.5611267 6.5091553 8.685333 15.337433 8.685333 24.542725l0 0c0 19.169067 -13.276352 34.70868 -29.65355 34.70868l0 0c-16.377197 0 -29.65355 -15.539612 -29.65355 -34.70868z" fill-rule="nonzero"></path><path fill="#cc4125" d="m745.6984 96.68246l0 0c0 -19.16906 13.276367 -34.708656 29.653564 -34.708656l0 0c7.864563 0 15.4071045 3.6567917 20.9682 10.165932c5.561096 6.5091324 8.685303 15.337418 8.685303 24.542725l0 0c0 19.169067 -13.276306 34.70867 -29.653503 34.70867l0 0c-16.377197 0 -29.653564 -15.539604 -29.653564 -34.70867z" fill-rule="nonzero"></path><path stroke="#595959" stroke-width="1.0" stroke-linejoin="round" stroke-linecap="butt" d="m745.6984 96.68246l0 0c0 -19.16906 13.276367 -34.708656 29.653564 -34.708656l0 0c7.864563 0 15.4071045 3.6567917 20.9682 10.165932c5.561096 6.5091324 8.685303 15.337418 8.685303 24.542725l0 0c0 19.169067 -13.276306 34.70867 -29.653503 34.70867l0 0c-16.377197 0 -29.653564 -15.539604 -29.653564 -34.70867z" fill-rule="nonzero"></path><path fill="#cc4125" d="m745.6984 241.91873l0 0c0 -19.169067 13.276367 -34.708664 29.653564 -34.708664l0 0c7.864563 0 15.4071045 3.656784 20.9682 10.165924c5.561096 6.50914 8.685303 15.337418 8.685303 24.54274l0 0c0 19.169067 -13.276306 34.70865 -29.653503 34.70865l0 0c-16.377197 0 -29.653564 -15.539581 -29.653564 -34.70865z" fill-rule="nonzero"></path><path stroke="#595959" stroke-width="1.0" stroke-linejoin="round" stroke-linecap="butt" d="m745.6984 241.91873l0 0c0 -19.169067 13.276367 -34.708664 29.653564 -34.708664l0 0c7.864563 0 15.4071045 3.656784 20.9682 10.165924c5.561096 6.50914 8.685303 15.337418 8.685303 24.54274l0 0c0 19.169067 -13.276306 34.70865 -29.653503 34.70865l0 0c-16.377197 0 -29.653564 -15.539581 -29.653564 -34.70865z" fill-rule="nonzero"></path><path fill="#cc4125" d="m745.6984 443.3181l0 0c0 -19.169067 13.276367 -34.70865 29.653564 -34.70865l0 0c7.864563 0 15.4071045 3.6567993 20.9682 10.165924c5.561096 6.5091248 8.685303 15.337433 8.685303 24.542725l0 0c0 19.169067 -13.276306 34.70868 -29.653503 34.70868l0 0c-16.377197 0 -29.653564 -15.539612 -29.653564 -34.70868z" fill-rule="nonzero"></path><path stroke="#595959" stroke-width="1.0" stroke-linejoin="round" stroke-linecap="butt" d="m745.6984 443.3181l0 0c0 -19.169067 13.276367 -34.70865 29.653564 -34.70865l0 0c7.864563 0 15.4071045 3.6567993 20.9682 10.165924c5.561096 6.5091248 8.685303 15.337433 8.685303 24.542725l0 0c0 19.169067 -13.276306 34.70868 -29.653503 34.70868l0 0c-16.377197 0 -29.653564 -15.539612 -29.653564 -34.70868z" fill-rule="nonzero"></path><path fill="#000000" fill-opacity="0.0" d="m189.80586 148.59308l564.56696 68.7874" fill-rule="nonzero"></path><path stroke="#595959" stroke-width="1.0" stroke-linejoin="round" stroke-linecap="butt" d="m189.80588 148.59308l561.16504 68.37291" fill-rule="evenodd"></path><path fill="#595959" stroke="#595959" stroke-width="1.0" stroke-linecap="butt" d="m750.9709 216.96599l-1.2523804 0.9803009l3.203125 -0.74263l-2.9310913 -1.4900208z" fill-rule="evenodd"></path><path fill="#000000" fill-opacity="0.0" d="m198.4912 241.91873l555.9055 -120.69292" fill-rule="nonzero"></path><path stroke="#595959" stroke-width="1.0" stroke-linejoin="round" stroke-linecap="butt" d="m198.49118 241.91872l552.5565 -119.96579" fill-rule="evenodd"></path><path fill="#595959" stroke="#595959" stroke-width="1.0" stroke-linecap="butt" d="m751.04767 121.952934l-0.86035156 1.3375778l2.7808228 -1.7545319l-3.2580566 -0.44342804z" fill-rule="evenodd"></path><path fill="#000000" fill-opacity="0.0" d="m198.4912 359.7871l547.2126 83.52756" fill-rule="nonzero"></path><path stroke="#595959" stroke-width="1.0" stroke-linejoin="round" stroke-linecap="butt" d="m198.49118 359.7871l543.8247 83.01044" fill-rule="evenodd"></path><path fill="#595959" stroke="#595959" stroke-width="1.0" stroke-linecap="butt" d="m742.316 442.79755l-1.2814331 0.9420166l3.224121 -0.6454773l-2.8847046 -1.5779419z" fill-rule="evenodd"></path></g></svg>

