<?xml version="1.0" standalone="yes"?>

<svg version="1.1" viewBox="0.0 0.0 960.0 540.0" fill="none" stroke="none" stroke-linecap="square" stroke-miterlimit="10" xmlns="http://www.w3.org/2000/svg" xmlns:xlink="http://www.w3.org/1999/xlink"><clipPath id="ged9bc17c2_0_21.0"><path d="m0 0l960.0 0l0 540.0l-960.0 0l0 -540.0z" clip-rule="nonzero"></path></clipPath><g clip-path="url(#ged9bc17c2_0_21.0)"><path fill="#ffffff" d="m0 0l960.0 0l0 540.0l-960.0 0z" fill-rule="nonzero"></path><path fill="#eeeeee" d="m597.69025 96.81125l303.15833 0l0 353.91647l-303.15833 0z" fill-rule="nonzero"></path><path stroke="#595959" stroke-width="1.0" stroke-linejoin="round" stroke-linecap="butt" d="m597.69025 96.81125l303.15833 0l0 353.91647l-303.15833 0z" fill-rule="nonzero"></path><path fill="#38761d" d="m576.8467 150.49142l0 0c0 -16.57724 6.8814087 -30.015747 15.370117 -30.015747l0 0c4.076355 0 7.98584 3.1623611 10.868286 8.791412c2.8824463 5.6290436 4.50177 13.263657 4.50177 21.224335l0 0c0 16.57724 -6.8814087 30.015747 -15.370056 30.015747l0 0c-8.4887085 0 -15.370117 -13.438507 -15.370117 -30.015747z" fill-rule="nonzero"></path><path stroke="#595959" stroke-width="1.0" stroke-linejoin="round" stroke-linecap="butt" d="m576.8467 150.49142l0 0c0 -16.57724 6.8814087 -30.015747 15.370117 -30.015747l0 0c4.076355 0 7.98584 3.1623611 10.868286 8.791412c2.8824463 5.6290436 4.50177 13.263657 4.50177 21.224335l0 0c0 16.57724 -6.8814087 30.015747 -15.370056 30.015747l0 0c-8.4887085 0 -15.370117 -13.438507 -15.370117 -30.015747z" fill-rule="nonzero"></path><path fill="#38761d" d="m576.8467 252.41974l0 0c0 -16.57724 6.8814087 -30.015747 15.370117 -30.015747l0 0c4.076355 0 7.98584 3.1623688 10.868286 8.791412c2.8824463 5.6290436 4.50177 13.263672 4.50177 21.224335l0 0c0 16.57724 -6.8814087 30.015747 -15.370056 30.015747l0 0c-8.4887085 0 -15.370117 -13.438507 -15.370117 -30.015747z" fill-rule="nonzero"></path><path stroke="#595959" stroke-width="1.0" stroke-linejoin="round" stroke-linecap="butt" d="m576.8467 252.41974l0 0c0 -16.57724 6.8814087 -30.015747 15.370117 -30.015747l0 0c4.076355 0 7.98584 3.1623688 10.868286 8.791412c2.8824463 5.6290436 4.50177 13.263672 4.50177 21.224335l0 0c0 16.57724 -6.8814087 30.015747 -15.370056 30.015747l0 0c-8.4887085 0 -15.370117 -13.438507 -15.370117 -30.015747z" fill-rule="nonzero"></path><path fill="#38761d" d="m576.8467 354.34805l0 0c0 -16.57724 6.8814087 -30.015747 15.370117 -30.015747l0 0c4.076355 0 7.98584 3.162384 10.868286 8.791412c2.8824463 5.629059 4.50177 13.263672 4.50177 21.224335l0 0c0 16.57724 -6.8814087 30.015747 -15.370056 30.015747l0 0c-8.4887085 0 -15.370117 -13.438507 -15.370117 -30.015747z" fill-rule="nonzero"></path><path stroke="#595959" stroke-width="1.0" stroke-linejoin="round" stroke-linecap="butt" d="m576.8467 354.34805l0 0c0 -16.57724 6.8814087 -30.015747 15.370117 -30.015747l0 0c4.076355 0 7.98584 3.162384 10.868286 8.791412c2.8824463 5.629059 4.50177 13.263672 4.50177 21.224335l0 0c0 16.57724 -6.8814087 30.015747 -15.370056 30.015747l0 0c-8.4887085 0 -15.370117 -13.438507 -15.370117 -30.015747z" fill-rule="nonzero"></path><path fill="#38761d" d="m576.8467 426.11136l0 0c0 -16.57724 6.8814087 -30.015747 15.370117 -30.015747l0 0c4.076355 0 7.98584 3.1623535 10.868286 8.791412c2.8824463 5.6290283 4.50177 13.263641 4.50177 21.224335l0 0c0 16.57724 -6.8814087 30.015747 -15.370056 30.015747l0 0c-8.4887085 0 -15.370117 -13.438507 -15.370117 -30.015747z" fill-rule="nonzero"></path><path stroke="#595959" stroke-width="1.0" stroke-linejoin="round" stroke-linecap="butt" d="m576.8467 426.11136l0 0c0 -16.57724 6.8814087 -30.015747 15.370117 -30.015747l0 0c4.076355 0 7.98584 3.1623535 10.868286 8.791412c2.8824463 5.6290283 4.50177 13.263641 4.50177 21.224335l0 0c0 16.57724 -6.8814087 30.015747 -15.370056 30.015747l0 0c-8.4887085 0 -15.370117 -13.438507 -15.370117 -30.015747z" fill-rule="nonzero"></path><path fill="#cc4125" d="m890.9661 126.82466l0 0c0 -16.57724 6.8814087 -30.015747 15.370056 -30.015747l0 0c4.076416 0 7.98584 3.1623611 10.868286 8.791405c2.8824463 5.629051 4.501831 13.263672 4.501831 21.224342l0 0c0 16.57724 -6.8814697 30.015747 -15.370117 30.015747l0 0c-8.488647 0 -15.370056 -13.438507 -15.370056 -30.015747z" fill-rule="nonzero"></path><path stroke="#595959" stroke-width="1.0" stroke-linejoin="round" stroke-linecap="butt" d="m890.9661 126.82466l0 0c0 -16.57724 6.8814087 -30.015747 15.370056 -30.015747l0 0c4.076416 0 7.98584 3.1623611 10.868286 8.791405c2.8824463 5.629051 4.501831 13.263672 4.501831 21.224342l0 0c0 16.57724 -6.8814697 30.015747 -15.370117 30.015747l0 0c-8.488647 0 -15.370056 -13.438507 -15.370056 -30.015747z" fill-rule="nonzero"></path><path fill="#cc4125" d="m890.9661 276.7025l0 0c0 -16.57724 6.8814087 -30.015762 15.370056 -30.015762l0 0c4.076416 0 7.98584 3.1623688 10.868286 8.791412c2.8824463 5.6290436 4.501831 13.263657 4.501831 21.22435l0 0c0 16.57724 -6.8814697 30.015747 -15.370117 30.015747l0 0c-8.488647 0 -15.370056 -13.438507 -15.370056 -30.015747z" fill-rule="nonzero"></path><path stroke="#595959" stroke-width="1.0" stroke-linejoin="round" stroke-linecap="butt" d="m890.9661 276.7025l0 0c0 -16.57724 6.8814087 -30.015762 15.370056 -30.015762l0 0c4.076416 0 7.98584 3.1623688 10.868286 8.791412c2.8824463 5.6290436 4.501831 13.263657 4.501831 21.22435l0 0c0 16.57724 -6.8814697 30.015747 -15.370117 30.015747l0 0c-8.488647 0 -15.370056 -13.438507 -15.370056 -30.015747z" fill-rule="nonzero"></path><path fill="#cc4125" d="m890.9661 426.58267l0 0c0 -16.57724 6.8814087 -30.015747 15.370056 -30.015747l0 0c4.076416 0 7.98584 3.162384 10.868286 8.791412c2.8824463 5.629059 4.501831 13.263672 4.501831 21.224335l0 0c0 16.57724 -6.8814697 30.015747 -15.370117 30.015747l0 0c-8.488647 0 -15.370056 -13.438507 -15.370056 -30.015747z" fill-rule="nonzero"></path><path stroke="#595959" stroke-width="1.0" stroke-linejoin="round" stroke-linecap="butt" d="m890.9661 426.58267l0 0c0 -16.57724 6.8814087 -30.015747 15.370056 -30.015747l0 0c4.076416 0 7.98584 3.162384 10.868286 8.791412c2.8824463 5.629059 4.501831 13.263672 4.501831 21.224335l0 0c0 16.57724 -6.8814697 30.015747 -15.370117 30.015747l0 0c-8.488647 0 -15.370056 -13.438507 -15.370056 -30.015747z" fill-rule="nonzero"></path><path fill="#000000" fill-opacity="0.0" d="m603.0851 171.71576l127.87402 102.20474" fill-rule="nonzero"></path><path stroke="#595959" stroke-width="1.0" stroke-linejoin="round" stroke-linecap="butt" d="m603.0851 171.71576l125.1969 100.06503" fill-rule="evenodd"></path><path fill="#595959" stroke="#595959" stroke-width="1.0" stroke-linecap="butt" d="m728.282 271.7808l-1.5805664 0.17636108l3.1156616 1.0505981l-1.7114258 -2.8075562z" fill-rule="evenodd"></path><path fill="#ff9900" d="m726.462 291.67767l0 0c0 -13.872345 6.8814087 -25.118103 15.370056 -25.118103l0 0c4.076416 0 7.98584 2.6463623 10.868286 7.356903c2.8824463 4.7105713 4.50177 11.099457 4.50177 17.7612l0 0c0 13.872345 -6.8814087 25.118103 -15.370056 25.118103l0 0c-8.488647 0 -15.370056 -11.245758 -15.370056 -25.118103z" fill-rule="nonzero"></path><path stroke="#595959" stroke-width="1.0" stroke-linejoin="round" stroke-linecap="butt" d="m726.462 291.67767l0 0c0 -13.872345 6.8814087 -25.118103 15.370056 -25.118103l0 0c4.076416 0 7.98584 2.6463623 10.868286 7.356903c2.8824463 4.7105713 4.50177 11.099457 4.50177 17.7612l0 0c0 13.872345 -6.8814087 25.118103 -15.370056 25.118103l0 0c-8.488647 0 -15.370056 -11.245758 -15.370056 -25.118103z" fill-rule="nonzero"></path><path fill="#eeeeee" d="m39.56314 92.361626l303.15826 0l0 353.91647l-303.15826 0z" fill-rule="nonzero"></path><path stroke="#595959" stroke-width="1.0" stroke-linejoin="round" stroke-linecap="butt" d="m39.56314 92.361626l303.15826 0l0 353.91647l-303.15826 0z" fill-rule="nonzero"></path><path fill="#38761d" d="m18.719566 146.04181l0 0c0 -16.57724 6.88142 -30.015755 15.370079 -30.015755l0 0c4.076397 0 7.98584 3.1623611 10.868286 8.791412c2.88245 5.629036 4.501793 13.263664 4.501793 21.224342l0 0c0 16.57724 -6.88142 30.015747 -15.370079 30.015747l0 0c-8.488659 0 -15.370079 -13.438507 -15.370079 -30.015747z" fill-rule="nonzero"></path><path stroke="#595959" stroke-width="1.0" stroke-linejoin="round" stroke-linecap="butt" d="m18.719566 146.04181l0 0c0 -16.57724 6.88142 -30.015755 15.370079 -30.015755l0 0c4.076397 0 7.98584 3.1623611 10.868286 8.791412c2.88245 5.629036 4.501793 13.263664 4.501793 21.224342l0 0c0 16.57724 -6.88142 30.015747 -15.370079 30.015747l0 0c-8.488659 0 -15.370079 -13.438507 -15.370079 -30.015747z" fill-rule="nonzero"></path><path fill="#38761d" d="m18.719566 247.97012l0 0c0 -16.57724 6.88142 -30.015747 15.370079 -30.015747l0 0c4.076397 0 7.98584 3.1623688 10.868286 8.791412c2.88245 5.6290436 4.501793 13.263657 4.501793 21.224335l0 0c0 16.57724 -6.88142 30.015747 -15.370079 30.015747l0 0c-8.488659 0 -15.370079 -13.438507 -15.370079 -30.015747z" fill-rule="nonzero"></path><path stroke="#595959" stroke-width="1.0" stroke-linejoin="round" stroke-linecap="butt" d="m18.719566 247.97012l0 0c0 -16.57724 6.88142 -30.015747 15.370079 -30.015747l0 0c4.076397 0 7.98584 3.1623688 10.868286 8.791412c2.88245 5.6290436 4.501793 13.263657 4.501793 21.224335l0 0c0 16.57724 -6.88142 30.015747 -15.370079 30.015747l0 0c-8.488659 0 -15.370079 -13.438507 -15.370079 -30.015747z" fill-rule="nonzero"></path><path fill="#38761d" d="m18.719566 349.89844l0 0c0 -16.57724 6.88142 -30.015747 15.370079 -30.015747l0 0c4.076397 0 7.98584 3.1623535 10.868286 8.791412c2.88245 5.629059 4.501793 13.263672 4.501793 21.224335l0 0c0 16.57724 -6.88142 30.015747 -15.370079 30.015747l0 0c-8.488659 0 -15.370079 -13.438507 -15.370079 -30.015747z" fill-rule="nonzero"></path><path stroke="#595959" stroke-width="1.0" stroke-linejoin="round" stroke-linecap="butt" d="m18.719566 349.89844l0 0c0 -16.57724 6.88142 -30.015747 15.370079 -30.015747l0 0c4.076397 0 7.98584 3.1623535 10.868286 8.791412c2.88245 5.629059 4.501793 13.263672 4.501793 21.224335l0 0c0 16.57724 -6.88142 30.015747 -15.370079 30.015747l0 0c-8.488659 0 -15.370079 -13.438507 -15.370079 -30.015747z" fill-rule="nonzero"></path><path fill="#38761d" d="m18.719566 421.6617l0 0c0 -16.57724 6.88142 -30.015747 15.370079 -30.015747l0 0c4.076397 0 7.98584 3.162384 10.868286 8.791412c2.88245 5.629059 4.501793 13.263672 4.501793 21.224335l0 0c0 16.57724 -6.88142 30.015778 -15.370079 30.015778l0 0c-8.488659 0 -15.370079 -13.438538 -15.370079 -30.015778z" fill-rule="nonzero"></path><path stroke="#595959" stroke-width="1.0" stroke-linejoin="round" stroke-linecap="butt" d="m18.719566 421.6617l0 0c0 -16.57724 6.88142 -30.015747 15.370079 -30.015747l0 0c4.076397 0 7.98584 3.162384 10.868286 8.791412c2.88245 5.629059 4.501793 13.263672 4.501793 21.224335l0 0c0 16.57724 -6.88142 30.015778 -15.370079 30.015778l0 0c-8.488659 0 -15.370079 -13.438538 -15.370079 -30.015778z" fill-rule="nonzero"></path><path fill="#cc4125" d="m332.839 122.37504l0 0c0 -16.57724 6.8814087 -30.015747 15.370087 -30.015747l0 0c4.0763855 0 7.98584 3.1623611 10.868286 8.791405c2.8824463 5.629051 4.50177 13.263672 4.50177 21.224342l0 0c0 16.577232 -6.8814087 30.015755 -15.370056 30.015755l0 0c-8.488678 0 -15.370087 -13.438522 -15.370087 -30.015755z" fill-rule="nonzero"></path><path stroke="#595959" stroke-width="1.0" stroke-linejoin="round" stroke-linecap="butt" d="m332.839 122.37504l0 0c0 -16.57724 6.8814087 -30.015747 15.370087 -30.015747l0 0c4.0763855 0 7.98584 3.1623611 10.868286 8.791405c2.8824463 5.629051 4.50177 13.263672 4.50177 21.224342l0 0c0 16.577232 -6.8814087 30.015755 -15.370056 30.015755l0 0c-8.488678 0 -15.370087 -13.438522 -15.370087 -30.015755z" fill-rule="nonzero"></path><path fill="#cc4125" d="m332.839 272.25522l0 0c0 -16.57724 6.8814087 -30.015747 15.370087 -30.015747l0 0c4.0763855 0 7.98584 3.1623535 10.868286 8.791397c2.8824463 5.6290436 4.50177 13.263687 4.50177 21.22435l0 0c0 16.57724 -6.8814087 30.015747 -15.370056 30.015747l0 0c-8.488678 0 -15.370087 -13.438507 -15.370087 -30.015747z" fill-rule="nonzero"></path><path stroke="#595959" stroke-width="1.0" stroke-linejoin="round" stroke-linecap="butt" d="m332.839 272.25522l0 0c0 -16.57724 6.8814087 -30.015747 15.370087 -30.015747l0 0c4.0763855 0 7.98584 3.1623535 10.868286 8.791397c2.8824463 5.6290436 4.50177 13.263687 4.50177 21.22435l0 0c0 16.57724 -6.8814087 30.015747 -15.370056 30.015747l0 0c-8.488678 0 -15.370087 -13.438507 -15.370087 -30.015747z" fill-rule="nonzero"></path><path fill="#cc4125" d="m332.839 422.13306l0 0c0 -16.57724 6.8814087 -30.015747 15.370087 -30.015747l0 0c4.0763855 0 7.98584 3.1623535 10.868286 8.791412c2.8824463 5.6290283 4.50177 13.263672 4.50177 21.224335l0 0c0 16.57724 -6.8814087 30.015747 -15.370056 30.015747l0 0c-8.488678 0 -15.370087 -13.438507 -15.370087 -30.015747z" fill-rule="nonzero"></path><path stroke="#595959" stroke-width="1.0" stroke-linejoin="round" stroke-linecap="butt" d="m332.839 422.13306l0 0c0 -16.57724 6.8814087 -30.015747 15.370087 -30.015747l0 0c4.0763855 0 7.98584 3.1623535 10.868286 8.791412c2.8824463 5.6290283 4.50177 13.263672 4.50177 21.224335l0 0c0 16.57724 -6.8814087 30.015747 -15.370056 30.015747l0 0c-8.488678 0 -15.370087 -13.438507 -15.370087 -30.015747z" fill-rule="nonzero"></path><path fill="#000000" fill-opacity="0.0" d="m44.95793 167.26614l292.37793 83.779526" fill-rule="nonzero"></path><path stroke="#595959" stroke-width="1.0" stroke-linejoin="round" stroke-linecap="butt" d="m44.957935 167.26614l289.08344 82.835495" fill-rule="evenodd"></path><path fill="#595959" stroke="#595959" stroke-width="1.0" stroke-linecap="butt" d="m334.04138 250.10164l-1.3908691 0.77130127l3.2800293 -0.22996521l-2.6604614 -1.93219z" fill-rule="evenodd"></path><path fill="#eeeeee" d="m419.63095 229.16064l41.18112 0l0 -68.68503l41.18109 137.37009l-41.18109 137.37006l0 -68.68503l-41.18112 0z" fill-rule="nonzero"></path><path stroke="#595959" stroke-width="1.0" stroke-linejoin="round" stroke-linecap="butt" d="m419.63095 229.16064l41.18112 0l0 -68.68503l41.18109 137.37009l-41.18109 137.37006l0 -68.68503l-41.18112 0z" fill-rule="nonzero"></path><path fill="#000000" fill-opacity="0.0" d="m757.2021 291.67767l133.7638 -14.960632" fill-rule="nonzero"></path><path stroke="#595959" stroke-width="1.0" stroke-linejoin="round" stroke-linecap="butt" d="m757.2021 291.67764l127.800964 -14.293701" fill-rule="evenodd"></path><path fill="#595959" stroke="#595959" stroke-width="1.0" stroke-linecap="butt" d="m885.18665 279.02542l4.326416 -2.1459045l-4.6936035 -1.137085z" fill-rule="evenodd"></path></g></svg>

