<?xml version="1.0" standalone="yes"?>

<svg version="1.1" viewBox="0.0 0.0 960.0 540.0" fill="none" stroke="none" stroke-linecap="square" stroke-miterlimit="10" xmlns="http://www.w3.org/2000/svg" xmlns:xlink="http://www.w3.org/1999/xlink"><clipPath id="ged9bc17c2_0_83.0"><path d="m0 0l960.0 0l0 540.0l-960.0 0l0 -540.0z" clip-rule="nonzero"></path></clipPath><g clip-path="url(#ged9bc17c2_0_83.0)"><path fill="#eeeeee" d="m41.51598 31.13669l320.3438 0l0 429.4797l-320.3438 0z" fill-rule="nonzero"></path><path stroke="#595959" stroke-width="1.0" stroke-linejoin="round" stroke-linecap="butt" d="m41.51598 31.13669l320.3438 0l0 429.4797l-320.3438 0z" fill-rule="nonzero"></path><path fill="#38761d" d="m19.490814 96.27881l0 0c0 -20.11708 7.2621517 -36.425194 16.22047 -36.425194l0 0c4.301937 0 8.427677 3.8376427 11.469608 10.668694c3.0419273 6.831047 4.750866 16.09594 4.750866 25.7565l0 0c0 20.11708 -7.2621536 36.4252 -16.220474 36.4252l0 0c-8.958319 0 -16.22047 -16.30812 -16.22047 -36.4252z" fill-rule="nonzero"></path><path stroke="#595959" stroke-width="1.0" stroke-linejoin="round" stroke-linecap="butt" d="m19.490814 96.27881l0 0c0 -20.11708 7.2621517 -36.425194 16.22047 -36.425194l0 0c4.301937 0 8.427677 3.8376427 11.469608 10.668694c3.0419273 6.831047 4.750866 16.09594 4.750866 25.7565l0 0c0 20.11708 -7.2621536 36.4252 -16.220474 36.4252l0 0c-8.958319 0 -16.22047 -16.30812 -16.22047 -36.4252z" fill-rule="nonzero"></path><path fill="#38761d" d="m19.490814 219.96942l0 0c0 -20.11708 7.2621517 -36.4252 16.22047 -36.4252l0 0c4.301937 0 8.427677 3.8376465 11.469608 10.668686c3.0419273 6.8310547 4.750866 16.095947 4.750866 25.756516l0 0c0 20.11708 -7.2621536 36.4252 -16.220474 36.4252l0 0c-8.958319 0 -16.22047 -16.30812 -16.22047 -36.4252z" fill-rule="nonzero"></path><path stroke="#595959" stroke-width="1.0" stroke-linejoin="round" stroke-linecap="butt" d="m19.490814 219.96942l0 0c0 -20.11708 7.2621517 -36.4252 16.22047 -36.4252l0 0c4.301937 0 8.427677 3.8376465 11.469608 10.668686c3.0419273 6.8310547 4.750866 16.095947 4.750866 25.756516l0 0c0 20.11708 -7.2621536 36.4252 -16.220474 36.4252l0 0c-8.958319 0 -16.22047 -16.30812 -16.22047 -36.4252z" fill-rule="nonzero"></path><path fill="#38761d" d="m19.490814 343.66003l0 0c0 -20.117096 7.2621517 -36.4252 16.22047 -36.4252l0 0c4.301937 0 8.427677 3.8376465 11.469608 10.668671c3.0419273 6.8310547 4.750866 16.095947 4.750866 25.75653l0 0c0 20.117065 -7.2621536 36.42517 -16.220474 36.42517l0 0c-8.958319 0 -16.22047 -16.308105 -16.22047 -36.42517z" fill-rule="nonzero"></path><path stroke="#595959" stroke-width="1.0" stroke-linejoin="round" stroke-linecap="butt" d="m19.490814 343.66003l0 0c0 -20.117096 7.2621517 -36.4252 16.22047 -36.4252l0 0c4.301937 0 8.427677 3.8376465 11.469608 10.668671c3.0419273 6.8310547 4.750866 16.095947 4.750866 25.75653l0 0c0 20.117065 -7.2621536 36.42517 -16.220474 36.42517l0 0c-8.958319 0 -16.22047 -16.308105 -16.22047 -36.42517z" fill-rule="nonzero"></path><path fill="#38761d" d="m19.490814 430.74518l0 0c0 -20.117065 7.2621517 -36.4252 16.22047 -36.4252l0 0c4.301937 0 8.427677 3.8376465 11.469608 10.668701c3.0419273 6.8310547 4.750866 16.095947 4.750866 25.7565l0 0c0 20.117096 -7.2621536 36.4252 -16.220474 36.4252l0 0c-8.958319 0 -16.22047 -16.308105 -16.22047 -36.4252z" fill-rule="nonzero"></path><path stroke="#595959" stroke-width="1.0" stroke-linejoin="round" stroke-linecap="butt" d="m19.490814 430.74518l0 0c0 -20.117065 7.2621517 -36.4252 16.22047 -36.4252l0 0c4.301937 0 8.427677 3.8376465 11.469608 10.668701c3.0419273 6.8310547 4.750866 16.095947 4.750866 25.7565l0 0c0 20.117096 -7.2621536 36.4252 -16.220474 36.4252l0 0c-8.958319 0 -16.22047 -16.308105 -16.22047 -36.4252z" fill-rule="nonzero"></path><path fill="#cc4125" d="m351.41714 67.55905l0 0c0 -20.117077 7.2621765 -36.425194 16.22049 -36.425194l0 0c4.301941 0 8.427673 3.8376427 11.4696045 10.668694c3.0419312 6.831051 4.7508545 16.09594 4.7508545 25.7565l0 0c0 20.11708 -7.262146 36.4252 -16.220459 36.4252l0 0c-8.958313 0 -16.22049 -16.30812 -16.22049 -36.4252z" fill-rule="nonzero"></path><path stroke="#595959" stroke-width="1.0" stroke-linejoin="round" stroke-linecap="butt" d="m351.41714 67.55905l0 0c0 -20.117077 7.2621765 -36.425194 16.22049 -36.425194l0 0c4.301941 0 8.427673 3.8376427 11.4696045 10.668694c3.0419312 6.831051 4.7508545 16.09594 4.7508545 25.7565l0 0c0 20.11708 -7.262146 36.4252 -16.220459 36.4252l0 0c-8.958313 0 -16.22049 -16.30812 -16.22049 -36.4252z" fill-rule="nonzero"></path><path fill="#cc4125" d="m351.41714 224.49413l0 0c0 -20.11708 7.2621765 -36.425186 16.22049 -36.425186l0 0c4.301941 0 8.427673 3.8376312 11.4696045 10.668686c3.0419312 6.8310547 4.7508545 16.095947 4.7508545 25.7565l0 0c0 20.11708 -7.262146 36.425186 -16.220459 36.425186l0 0c-8.958313 0 -16.22049 -16.308105 -16.22049 -36.425186z" fill-rule="nonzero"></path><path stroke="#595959" stroke-width="1.0" stroke-linejoin="round" stroke-linecap="butt" d="m351.41714 224.49413l0 0c0 -20.11708 7.2621765 -36.425186 16.22049 -36.425186l0 0c4.301941 0 8.427673 3.8376312 11.4696045 10.668686c3.0419312 6.8310547 4.7508545 16.095947 4.7508545 25.7565l0 0c0 20.11708 -7.262146 36.425186 -16.220459 36.425186l0 0c-8.958313 0 -16.22049 -16.308105 -16.22049 -36.425186z" fill-rule="nonzero"></path><path fill="#cc4125" d="m351.41714 431.31714l0 0c0 -20.117065 7.2621765 -36.4252 16.22049 -36.4252l0 0c4.301941 0 8.427673 3.8376465 11.4696045 10.668701c3.0419312 6.8310547 4.7508545 16.095947 4.7508545 25.7565l0 0c0 20.117096 -7.262146 36.4252 -16.220459 36.4252l0 0c-8.958313 0 -16.22049 -16.308105 -16.22049 -36.4252z" fill-rule="nonzero"></path><path stroke="#595959" stroke-width="1.0" stroke-linejoin="round" stroke-linecap="butt" d="m351.41714 431.31714l0 0c0 -20.117065 7.2621765 -36.4252 16.22049 -36.4252l0 0c4.301941 0 8.427673 3.8376465 11.4696045 10.668701c3.0419312 6.8310547 4.7508545 16.095947 4.7508545 25.7565l0 0c0 20.117096 -7.262146 36.4252 -16.220459 36.4252l0 0c-8.958313 0 -16.22049 -16.308105 -16.22049 -36.4252z" fill-rule="nonzero"></path><path fill="#000000" fill-opacity="0.0" d="m47.180893 122.03532l135.14961 124.03149" fill-rule="nonzero"></path><path stroke="#595959" stroke-width="1.0" stroke-linejoin="round" stroke-linecap="butt" d="m47.180893 122.03531l132.62465 121.714264" fill-rule="evenodd"></path><path fill="#595959" stroke="#595959" stroke-width="1.0" stroke-linecap="butt" d="m179.80556 243.74957l-1.5889435 0.06816101l3.0368195 1.2606049l-1.516037 -2.9177094z" fill-rule="evenodd"></path><path fill="#ff9900" d="m177.58751 267.5997l0 0c0 -16.829483 7.2621613 -30.472458 16.220474 -30.472458l0 0c4.301941 0 8.427689 3.2104797 11.4696045 8.925171c3.0419312 5.714691 4.7508698 13.465469 4.7508698 21.547287l0 0c0 16.829437 -7.262146 30.472443 -16.220474 30.472443l0 0c-8.958313 0 -16.220474 -13.643005 -16.220474 -30.472443z" fill-rule="nonzero"></path><path stroke="#595959" stroke-width="1.0" stroke-linejoin="round" stroke-linecap="butt" d="m177.58751 267.5997l0 0c0 -16.829483 7.2621613 -30.472458 16.220474 -30.472458l0 0c4.301941 0 8.427689 3.2104797 11.4696045 8.925171c3.0419312 5.714691 4.7508698 13.465469 4.7508698 21.547287l0 0c0 16.829437 -7.262146 30.472443 -16.220474 30.472443l0 0c-8.958313 0 -16.220474 -13.643005 -16.220474 -30.472443z" fill-rule="nonzero"></path><path fill="#000000" fill-opacity="0.0" d="m213.15616 281.65015l135.1496 124.031494" fill-rule="nonzero"></path><path stroke="#595959" stroke-width="1.0" stroke-linejoin="round" stroke-linecap="butt" d="m213.15617 281.65015l132.62468 121.714264" fill-rule="evenodd"></path><path fill="#595959" stroke="#595959" stroke-width="1.0" stroke-linecap="butt" d="m345.78082 403.3644l-1.5889282 0.06814575l3.0368042 1.2606201l-1.5160217 -2.9177246z" fill-rule="evenodd"></path><path fill="#eeeeee" d="m431.39136 182.889l43.51181 0l0 -83.346466l43.51181 166.6929l-43.51181 166.69293l0 -83.346466l-43.51181 0z" fill-rule="nonzero"></path><path stroke="#595959" stroke-width="1.0" stroke-linejoin="round" stroke-linecap="butt" d="m431.39136 182.889l43.51181 0l0 -83.346466l43.51181 166.6929l-43.51181 166.69293l0 -83.346466l-43.51181 0z" fill-rule="nonzero"></path><path fill="#eeeeee" d="m604.9245 43.207314l320.34387 0l0 429.4797l-320.34387 0z" fill-rule="nonzero"></path><path stroke="#595959" stroke-width="1.0" stroke-linejoin="round" stroke-linecap="butt" d="m604.9245 43.207314l320.34387 0l0 429.4797l-320.34387 0z" fill-rule="nonzero"></path><path fill="#38761d" d="m582.89935 108.349434l0 0c0 -20.11708 7.262146 -36.4252 16.220459 -36.4252l0 0c4.301941 0 8.427673 3.8376465 11.4696045 10.668694c3.0419312 6.8310547 4.7509155 16.095947 4.7509155 25.756508l0 0c0 20.117073 -7.262146 36.425194 -16.22052 36.425194l0 0c-8.958313 0 -16.220459 -16.30812 -16.220459 -36.425194z" fill-rule="nonzero"></path><path stroke="#595959" stroke-width="1.0" stroke-linejoin="round" stroke-linecap="butt" d="m582.89935 108.349434l0 0c0 -20.11708 7.262146 -36.4252 16.220459 -36.4252l0 0c4.301941 0 8.427673 3.8376465 11.4696045 10.668694c3.0419312 6.8310547 4.7509155 16.095947 4.7509155 25.756508l0 0c0 20.117073 -7.262146 36.425194 -16.22052 36.425194l0 0c-8.958313 0 -16.220459 -16.30812 -16.220459 -36.425194z" fill-rule="nonzero"></path><path fill="#38761d" d="m582.89935 232.04004l0 0c0 -20.11708 7.262146 -36.4252 16.220459 -36.4252l0 0c4.301941 0 8.427673 3.8376465 11.4696045 10.668701c3.0419312 6.8310394 4.7509155 16.095932 4.7509155 25.7565l0 0c0 20.11708 -7.262146 36.4252 -16.22052 36.4252l0 0c-8.958313 0 -16.220459 -16.30812 -16.220459 -36.4252z" fill-rule="nonzero"></path><path stroke="#595959" stroke-width="1.0" stroke-linejoin="round" stroke-linecap="butt" d="m582.89935 232.04004l0 0c0 -20.11708 7.262146 -36.4252 16.220459 -36.4252l0 0c4.301941 0 8.427673 3.8376465 11.4696045 10.668701c3.0419312 6.8310394 4.7509155 16.095932 4.7509155 25.7565l0 0c0 20.11708 -7.262146 36.4252 -16.22052 36.4252l0 0c-8.958313 0 -16.220459 -16.30812 -16.220459 -36.4252z" fill-rule="nonzero"></path><path fill="#38761d" d="m582.89935 355.73065l0 0c0 -20.117096 7.262146 -36.4252 16.220459 -36.4252l0 0c4.301941 0 8.427673 3.8376465 11.4696045 10.668701c3.0419312 6.831024 4.7509155 16.095917 4.7509155 25.7565l0 0c0 20.117065 -7.262146 36.4252 -16.22052 36.4252l0 0c-8.958313 0 -16.220459 -16.308136 -16.220459 -36.4252z" fill-rule="nonzero"></path><path stroke="#595959" stroke-width="1.0" stroke-linejoin="round" stroke-linecap="butt" d="m582.89935 355.73065l0 0c0 -20.117096 7.262146 -36.4252 16.220459 -36.4252l0 0c4.301941 0 8.427673 3.8376465 11.4696045 10.668701c3.0419312 6.831024 4.7509155 16.095917 4.7509155 25.7565l0 0c0 20.117065 -7.262146 36.4252 -16.22052 36.4252l0 0c-8.958313 0 -16.220459 -16.308136 -16.220459 -36.4252z" fill-rule="nonzero"></path><path fill="#38761d" d="m582.89935 442.8158l0 0c0 -20.117065 7.262146 -36.4252 16.220459 -36.4252l0 0c4.301941 0 8.427673 3.8376465 11.4696045 10.668701c3.0419312 6.8310547 4.7509155 16.095947 4.7509155 25.7565l0 0c0 20.117096 -7.262146 36.4252 -16.22052 36.4252l0 0c-8.958313 0 -16.220459 -16.308105 -16.220459 -36.4252z" fill-rule="nonzero"></path><path stroke="#595959" stroke-width="1.0" stroke-linejoin="round" stroke-linecap="butt" d="m582.89935 442.8158l0 0c0 -20.117065 7.262146 -36.4252 16.220459 -36.4252l0 0c4.301941 0 8.427673 3.8376465 11.4696045 10.668701c3.0419312 6.8310547 4.7509155 16.095947 4.7509155 25.7565l0 0c0 20.117096 -7.262146 36.4252 -16.22052 36.4252l0 0c-8.958313 0 -16.220459 -16.308105 -16.220459 -36.4252z" fill-rule="nonzero"></path><path fill="#cc4125" d="m914.8257 79.62968l0 0c0 -20.11708 7.262146 -36.425198 16.22052 -36.425198l0 0c4.301941 0 8.427673 3.8376465 11.4696045 10.668694c3.0419312 6.831051 4.7508545 16.095943 4.7508545 25.756504l0 0c0 20.11708 -7.262146 36.425194 -16.220459 36.425194l0 0c-8.958374 0 -16.22052 -16.308113 -16.22052 -36.425194z" fill-rule="nonzero"></path><path stroke="#595959" stroke-width="1.0" stroke-linejoin="round" stroke-linecap="butt" d="m914.8257 79.62968l0 0c0 -20.11708 7.262146 -36.425198 16.22052 -36.425198l0 0c4.301941 0 8.427673 3.8376465 11.4696045 10.668694c3.0419312 6.831051 4.7508545 16.095943 4.7508545 25.756504l0 0c0 20.11708 -7.262146 36.425194 -16.220459 36.425194l0 0c-8.958374 0 -16.22052 -16.308113 -16.22052 -36.425194z" fill-rule="nonzero"></path><path fill="#cc4125" d="m914.8257 240.26266l0 0c0 -20.11708 7.262146 -36.425186 16.22052 -36.425186l0 0c4.301941 0 8.427673 3.8376465 11.4696045 10.668686c3.0419312 6.8310547 4.7508545 16.095947 4.7508545 25.7565l0 0c0 20.117096 -7.262146 36.4252 -16.220459 36.4252l0 0c-8.958374 0 -16.22052 -16.308105 -16.22052 -36.4252z" fill-rule="nonzero"></path><path stroke="#595959" stroke-width="1.0" stroke-linejoin="round" stroke-linecap="butt" d="m914.8257 240.26266l0 0c0 -20.11708 7.262146 -36.425186 16.22052 -36.425186l0 0c4.301941 0 8.427673 3.8376465 11.4696045 10.668686c3.0419312 6.8310547 4.7508545 16.095947 4.7508545 25.7565l0 0c0 20.117096 -7.262146 36.4252 -16.220459 36.4252l0 0c-8.958374 0 -16.22052 -16.308105 -16.22052 -36.4252z" fill-rule="nonzero"></path><path fill="#cc4125" d="m914.8257 443.38776l0 0c0 -20.117065 7.262146 -36.4252 16.22052 -36.4252l0 0c4.301941 0 8.427673 3.8376465 11.4696045 10.668701c3.0419312 6.8310547 4.7508545 16.095947 4.7508545 25.7565l0 0c0 20.117096 -7.262146 36.4252 -16.220459 36.4252l0 0c-8.958374 0 -16.22052 -16.308105 -16.22052 -36.4252z" fill-rule="nonzero"></path><path stroke="#595959" stroke-width="1.0" stroke-linejoin="round" stroke-linecap="butt" d="m914.8257 443.38776l0 0c0 -20.117065 7.262146 -36.4252 16.22052 -36.4252l0 0c4.301941 0 8.427673 3.8376465 11.4696045 10.668701c3.0419312 6.8310547 4.7508545 16.095947 4.7508545 25.7565l0 0c0 20.117096 -7.262146 36.4252 -16.220459 36.4252l0 0c-8.958374 0 -16.22052 -16.308105 -16.22052 -36.4252z" fill-rule="nonzero"></path><path fill="#000000" fill-opacity="0.0" d="m610.5894 134.10594l135.14966 124.03148" fill-rule="nonzero"></path><path stroke="#595959" stroke-width="1.0" stroke-linejoin="round" stroke-linecap="butt" d="m610.5894 134.10594l132.62463 121.71425" fill-rule="evenodd"></path><path fill="#595959" stroke="#595959" stroke-width="1.0" stroke-linecap="butt" d="m743.21405 255.82019l-1.5889282 0.06816101l3.0368042 1.2606049l-1.5160522 -2.9177094z" fill-rule="evenodd"></path><path fill="#ff9900" d="m740.9961 279.67032l0 0c0 -16.829468 7.262146 -30.472443 16.220459 -30.472443l0 0c4.301941 0 8.427673 3.2104797 11.4696045 8.925171c3.0419312 5.714691 4.7508545 13.465485 4.7508545 21.547272l0 0c0 16.829468 -7.262146 30.472443 -16.220459 30.472443l0 0c-8.958313 0 -16.220459 -13.642975 -16.220459 -30.472443z" fill-rule="nonzero"></path><path stroke="#595959" stroke-width="1.0" stroke-linejoin="round" stroke-linecap="butt" d="m740.9961 279.67032l0 0c0 -16.829468 7.262146 -30.472443 16.220459 -30.472443l0 0c4.301941 0 8.427673 3.2104797 11.4696045 8.925171c3.0419312 5.714691 4.7508545 13.465485 4.7508545 21.547272l0 0c0 16.829468 -7.262146 30.472443 -16.220459 30.472443l0 0c-8.958313 0 -16.220459 -13.642975 -16.220459 -30.472443z" fill-rule="nonzero"></path><path fill="#000000" fill-opacity="0.0" d="m776.5647 293.72076l135.1496 124.031494" fill-rule="nonzero"></path><path stroke="#595959" stroke-width="1.0" stroke-linejoin="round" stroke-linecap="butt" d="m776.5647 293.72076l132.6247 121.714264" fill-rule="evenodd"></path><path fill="#595959" stroke="#595959" stroke-width="1.0" stroke-linecap="butt" d="m909.1894 415.43503l-1.5889282 0.06814575l3.0368042 1.2606201l-1.5160522 -2.9177246z" fill-rule="evenodd"></path><path fill="#000000" fill-opacity="0.0" d="m773.437 279.67032l141.3858 -39.40158" fill-rule="nonzero"></path><path stroke="#595959" stroke-width="1.0" stroke-linejoin="round" stroke-linecap="butt" d="m773.437 279.67032l135.60608 -37.790863" fill-rule="evenodd"></path><path fill="#595959" stroke="#595959" stroke-width="1.0" stroke-linecap="butt" d="m909.4865 243.47055l3.9281006 -2.8093567l-4.8149414 -0.3728485z" fill-rule="evenodd"></path></g></svg>

