<?xml version="1.0" standalone="yes"?>

<svg version="1.1" viewBox="0.0 0.0 960.0 540.0" fill="none" stroke="none" stroke-linecap="square" stroke-miterlimit="10" xmlns="http://www.w3.org/2000/svg" xmlns:xlink="http://www.w3.org/1999/xlink"><clipPath id="ged9bc17c2_0_143.0"><path d="m0 0l960.0 0l0 540.0l-960.0 0l0 -540.0z" clip-rule="nonzero"></path></clipPath><g clip-path="url(#ged9bc17c2_0_143.0)"><path fill="#ffffff" d="m0 0l960.0 0l0 540.0l-960.0 0z" fill-rule="nonzero"></path><path fill="#eeeeee" d="m405.74734 169.92969l42.188965 0l0 -86.79528l42.188995 173.59055l-42.188995 173.59058l0 -86.79529l-42.188965 0z" fill-rule="nonzero"></path><path stroke="#595959" stroke-width="1.0" stroke-linejoin="round" stroke-linecap="butt" d="m405.74734 169.92969l42.188965 0l0 -86.79528l42.188995 173.59055l-42.188995 173.59058l0 -86.79529l-42.188965 0z" fill-rule="nonzero"></path><path fill="#eeeeee" d="m42.669235 42.229485l310.66248 0l0 447.26486l-310.66248 0z" fill-rule="nonzero"></path><path stroke="#595959" stroke-width="1.0" stroke-linejoin="round" stroke-linecap="butt" d="m42.669235 42.229485l310.66248 0l0 447.26486l-310.66248 0z" fill-rule="nonzero"></path><path fill="#38761d" d="m21.309711 110.07262l0 0c0 -20.952034 7.043583 -37.93701 15.732285 -37.93701l0 0c4.1724586 0 8.1740265 3.9969254 11.124405 11.111496c2.9503746 7.114563 4.607876 16.763992 4.607876 26.825516l0 0c0 20.952026 -7.043583 37.93701 -15.732281 37.93701l0 0c-8.688702 0 -15.732285 -16.984985 -15.732285 -37.93701z" fill-rule="nonzero"></path><path stroke="#595959" stroke-width="1.0" stroke-linejoin="round" stroke-linecap="butt" d="m21.309711 110.07262l0 0c0 -20.952034 7.043583 -37.93701 15.732285 -37.93701l0 0c4.1724586 0 8.1740265 3.9969254 11.124405 11.111496c2.9503746 7.114563 4.607876 16.763992 4.607876 26.825516l0 0c0 20.952026 -7.043583 37.93701 -15.732281 37.93701l0 0c-8.688702 0 -15.732285 -16.984985 -15.732285 -37.93701z" fill-rule="nonzero"></path><path fill="#38761d" d="m21.309711 238.88538l0 0c0 -20.952042 7.043583 -37.93701 15.732285 -37.93701l0 0c4.1724586 0 8.1740265 3.9969177 11.124405 11.111496c2.9503746 7.114563 4.607876 16.763992 4.607876 26.825516l0 0c0 20.952026 -7.043583 37.93701 -15.732281 37.93701l0 0c-8.688702 0 -15.732285 -16.984985 -15.732285 -37.93701z" fill-rule="nonzero"></path><path stroke="#595959" stroke-width="1.0" stroke-linejoin="round" stroke-linecap="butt" d="m21.309711 238.88538l0 0c0 -20.952042 7.043583 -37.93701 15.732285 -37.93701l0 0c4.1724586 0 8.1740265 3.9969177 11.124405 11.111496c2.9503746 7.114563 4.607876 16.763992 4.607876 26.825516l0 0c0 20.952026 -7.043583 37.93701 -15.732281 37.93701l0 0c-8.688702 0 -15.732285 -16.984985 -15.732285 -37.93701z" fill-rule="nonzero"></path><path fill="#38761d" d="m21.309711 367.69812l0 0c0 -20.952026 7.043583 -37.93701 15.732285 -37.93701l0 0c4.1724586 0 8.1740265 3.9969177 11.124405 11.111511c2.9503746 7.114563 4.607876 16.763977 4.607876 26.8255l0 0c0 20.952026 -7.043583 37.93701 -15.732281 37.93701l0 0c-8.688702 0 -15.732285 -16.984985 -15.732285 -37.93701z" fill-rule="nonzero"></path><path stroke="#595959" stroke-width="1.0" stroke-linejoin="round" stroke-linecap="butt" d="m21.309711 367.69812l0 0c0 -20.952026 7.043583 -37.93701 15.732285 -37.93701l0 0c4.1724586 0 8.1740265 3.9969177 11.124405 11.111511c2.9503746 7.114563 4.607876 16.763977 4.607876 26.8255l0 0c0 20.952026 -7.043583 37.93701 -15.732281 37.93701l0 0c-8.688702 0 -15.732285 -16.984985 -15.732285 -37.93701z" fill-rule="nonzero"></path><path fill="#38761d" d="m21.309711 458.38956l0 0c0 -20.952026 7.043583 -37.93701 15.732285 -37.93701l0 0c4.1724586 0 8.1740265 3.9969482 11.124405 11.111511c2.9503746 7.114563 4.607876 16.763977 4.607876 26.8255l0 0c0 20.952057 -7.043583 37.93701 -15.732281 37.93701l0 0c-8.688702 0 -15.732285 -16.984955 -15.732285 -37.93701z" fill-rule="nonzero"></path><path stroke="#595959" stroke-width="1.0" stroke-linejoin="round" stroke-linecap="butt" d="m21.309711 458.38956l0 0c0 -20.952026 7.043583 -37.93701 15.732285 -37.93701l0 0c4.1724586 0 8.1740265 3.9969482 11.124405 11.111511c2.9503746 7.114563 4.607876 16.763977 4.607876 26.8255l0 0c0 20.952057 -7.043583 37.93701 -15.732281 37.93701l0 0c-8.688702 0 -15.732285 -16.984955 -15.732285 -37.93701z" fill-rule="nonzero"></path><path fill="#cc4125" d="m343.20465 81.49932l0 0c0 -20.952026 7.043579 -37.937004 15.7323 -37.937004l0 0c4.172455 0 8.174011 3.9969215 11.12439 11.111492c2.9503784 7.114567 4.6078796 16.763996 4.6078796 26.825512l0 0c0 20.952034 -7.043579 37.93701 -15.732269 37.93701l0 0c-8.688721 0 -15.7323 -16.984978 -15.7323 -37.93701z" fill-rule="nonzero"></path><path stroke="#595959" stroke-width="1.0" stroke-linejoin="round" stroke-linecap="butt" d="m343.20465 81.49932l0 0c0 -20.952026 7.043579 -37.937004 15.7323 -37.937004l0 0c4.172455 0 8.174011 3.9969215 11.12439 11.111492c2.9503784 7.114567 4.6078796 16.763996 4.6078796 26.825512l0 0c0 20.952034 -7.043579 37.93701 -15.732269 37.93701l0 0c-8.688721 0 -15.7323 -16.984978 -15.7323 -37.93701z" fill-rule="nonzero"></path><path fill="#cc4125" d="m343.20465 243.80977l0 0c0 -20.952042 7.043579 -37.93701 15.7323 -37.93701l0 0c4.172455 0 8.174011 3.9969177 11.12439 11.111496c2.9503784 7.114563 4.6078796 16.763992 4.6078796 26.825516l0 0c0 20.952011 -7.043579 37.936996 -15.732269 37.936996l0 0c-8.688721 0 -15.7323 -16.984985 -15.7323 -37.936996z" fill-rule="nonzero"></path><path stroke="#595959" stroke-width="1.0" stroke-linejoin="round" stroke-linecap="butt" d="m343.20465 243.80977l0 0c0 -20.952042 7.043579 -37.93701 15.7323 -37.93701l0 0c4.172455 0 8.174011 3.9969177 11.12439 11.111496c2.9503784 7.114563 4.6078796 16.763992 4.6078796 26.825516l0 0c0 20.952011 -7.043579 37.936996 -15.732269 37.936996l0 0c-8.688721 0 -15.7323 -16.984985 -15.7323 -37.936996z" fill-rule="nonzero"></path><path fill="#cc4125" d="m343.20465 458.9852l0 0c0 -20.952026 7.043579 -37.93698 15.7323 -37.93698l0 0c4.172455 0 8.174011 3.9969177 11.12439 11.111481c2.9503784 7.114563 4.6078796 16.764008 4.6078796 26.8255l0 0c0 20.952057 -7.043579 37.93701 -15.732269 37.93701l0 0c-8.688721 0 -15.7323 -16.984955 -15.7323 -37.93701z" fill-rule="nonzero"></path><path stroke="#595959" stroke-width="1.0" stroke-linejoin="round" stroke-linecap="butt" d="m343.20465 458.9852l0 0c0 -20.952026 7.043579 -37.93698 15.7323 -37.93698l0 0c4.172455 0 8.174011 3.9969177 11.12439 11.111481c2.9503784 7.114563 4.6078796 16.764008 4.6078796 26.8255l0 0c0 20.952057 -7.043579 37.93701 -15.732269 37.93701l0 0c-8.688721 0 -15.7323 -16.984955 -15.7323 -37.93701z" fill-rule="nonzero"></path><path fill="#000000" fill-opacity="0.0" d="m48.166397 136.89813l215.37007 79.52756" fill-rule="nonzero"></path><path stroke="#595959" stroke-width="1.0" stroke-linejoin="round" stroke-linecap="butt" d="m48.1664 136.89813l212.15517 78.34042" fill-rule="evenodd"></path><path fill="#595959" stroke="#595959" stroke-width="1.0" stroke-linecap="butt" d="m260.32156 215.23856l-1.4444885 0.6654053l3.288025 0.015335083l-2.5089417 -2.1252594z" fill-rule="evenodd"></path><path fill="#ff9900" d="m174.62845 288.49835l0 0c0 -17.533966 7.0435944 -31.748047 15.732285 -31.748047l0 0c4.17247 0 8.1740265 3.3448792 11.124405 9.298798c2.9503784 5.9539185 4.6078796 14.029144 4.6078796 22.44925l0 0c0 17.533936 -7.043579 31.748016 -15.732285 31.748016l0 0c-8.68869 0 -15.732285 -14.214081 -15.732285 -31.748016z" fill-rule="nonzero"></path><path stroke="#595959" stroke-width="1.0" stroke-linejoin="round" stroke-linecap="butt" d="m174.62845 288.49835l0 0c0 -17.533966 7.0435944 -31.748047 15.732285 -31.748047l0 0c4.17247 0 8.1740265 3.3448792 11.124405 9.298798c2.9503784 5.9539185 4.6078796 14.029144 4.6078796 22.44925l0 0c0 17.533936 -7.043579 31.748016 -15.732285 31.748016l0 0c-8.68869 0 -15.732285 -14.214081 -15.732285 -31.748016z" fill-rule="nonzero"></path><path fill="#000000" fill-opacity="0.0" d="m209.12216 303.11694l131.05511 129.16534" fill-rule="nonzero"></path><path stroke="#595959" stroke-width="1.0" stroke-linejoin="round" stroke-linecap="butt" d="m209.12215 303.11694l128.61427 126.759735" fill-rule="evenodd"></path><path fill="#595959" stroke="#595959" stroke-width="1.0" stroke-linecap="butt" d="m337.73642 429.87665l-1.5903625 0.011566162l2.9900208 1.3679199l-1.4112244 -2.969818z" fill-rule="evenodd"></path><path fill="#eeeeee" d="m618.9352 22.349081l310.66248 0l0 447.26486l-310.66248 0z" fill-rule="nonzero"></path><path stroke="#595959" stroke-width="1.0" stroke-linejoin="round" stroke-linecap="butt" d="m618.9352 22.349081l310.66248 0l0 447.26486l-310.66248 0z" fill-rule="nonzero"></path><path fill="#38761d" d="m597.5756 90.19221l0 0c0 -20.952026 7.04364 -37.937004 15.7323 -37.937004l0 0c4.1724854 0 8.174011 3.9969215 11.12439 11.111492c2.9503784 7.114567 4.60791 16.763996 4.60791 26.825512l0 0c0 20.952034 -7.043579 37.937004 -15.7323 37.937004l0 0c-8.68866 0 -15.7323 -16.98497 -15.7323 -37.937004z" fill-rule="nonzero"></path><path stroke="#595959" stroke-width="1.0" stroke-linejoin="round" stroke-linecap="butt" d="m597.5756 90.19221l0 0c0 -20.952026 7.04364 -37.937004 15.7323 -37.937004l0 0c4.1724854 0 8.174011 3.9969215 11.12439 11.111492c2.9503784 7.114567 4.60791 16.763996 4.60791 26.825512l0 0c0 20.952034 -7.043579 37.937004 -15.7323 37.937004l0 0c-8.68866 0 -15.7323 -16.98497 -15.7323 -37.937004z" fill-rule="nonzero"></path><path fill="#38761d" d="m597.5756 219.00496l0 0c0 -20.952026 7.04364 -37.936996 15.7323 -37.936996l0 0c4.1724854 0 8.174011 3.9969177 11.12439 11.111481c2.9503784 7.1145782 4.60791 16.764008 4.60791 26.825516l0 0c0 20.952042 -7.043579 37.937027 -15.7323 37.937027l0 0c-8.68866 0 -15.7323 -16.984985 -15.7323 -37.937027z" fill-rule="nonzero"></path><path stroke="#595959" stroke-width="1.0" stroke-linejoin="round" stroke-linecap="butt" d="m597.5756 219.00496l0 0c0 -20.952026 7.04364 -37.936996 15.7323 -37.936996l0 0c4.1724854 0 8.174011 3.9969177 11.12439 11.111481c2.9503784 7.1145782 4.60791 16.764008 4.60791 26.825516l0 0c0 20.952042 -7.043579 37.937027 -15.7323 37.937027l0 0c-8.68866 0 -15.7323 -16.984985 -15.7323 -37.937027z" fill-rule="nonzero"></path><path fill="#38761d" d="m597.5756 347.81772l0 0c0 -20.952026 7.04364 -37.93701 15.7323 -37.93701l0 0c4.1724854 0 8.174011 3.9969177 11.12439 11.111511c2.9503784 7.114563 4.60791 16.763977 4.60791 26.8255l0 0c0 20.952026 -7.043579 37.93701 -15.7323 37.93701l0 0c-8.68866 0 -15.7323 -16.984985 -15.7323 -37.93701z" fill-rule="nonzero"></path><path stroke="#595959" stroke-width="1.0" stroke-linejoin="round" stroke-linecap="butt" d="m597.5756 347.81772l0 0c0 -20.952026 7.04364 -37.93701 15.7323 -37.93701l0 0c4.1724854 0 8.174011 3.9969177 11.12439 11.111511c2.9503784 7.114563 4.60791 16.763977 4.60791 26.8255l0 0c0 20.952026 -7.043579 37.93701 -15.7323 37.93701l0 0c-8.68866 0 -15.7323 -16.984985 -15.7323 -37.93701z" fill-rule="nonzero"></path><path fill="#38761d" d="m597.5756 438.50916l0 0c0 -20.952026 7.04364 -37.93701 15.7323 -37.93701l0 0c4.1724854 0 8.174011 3.9969482 11.12439 11.111511c2.9503784 7.114563 4.60791 16.763977 4.60791 26.8255l0 0c0 20.952026 -7.043579 37.93701 -15.7323 37.93701l0 0c-8.68866 0 -15.7323 -16.984985 -15.7323 -37.93701z" fill-rule="nonzero"></path><path stroke="#595959" stroke-width="1.0" stroke-linejoin="round" stroke-linecap="butt" d="m597.5756 438.50916l0 0c0 -20.952026 7.04364 -37.93701 15.7323 -37.93701l0 0c4.1724854 0 8.174011 3.9969482 11.12439 11.111511c2.9503784 7.114563 4.60791 16.763977 4.60791 26.8255l0 0c0 20.952026 -7.043579 37.93701 -15.7323 37.93701l0 0c-8.68866 0 -15.7323 -16.984985 -15.7323 -37.93701z" fill-rule="nonzero"></path><path fill="#cc4125" d="m919.4706 71.55912l0 0c0 -20.95203 7.043579 -37.937008 15.7323 -37.937008l0 0c4.1724854 0 8.174011 3.9969254 11.12439 11.111496c2.9503784 7.114567 4.60791 16.763992 4.60791 26.825512l0 0c0 20.952034 -7.043579 37.93701 -15.7323 37.93701l0 0c-8.688721 0 -15.7323 -16.984978 -15.7323 -37.93701z" fill-rule="nonzero"></path><path stroke="#595959" stroke-width="1.0" stroke-linejoin="round" stroke-linecap="butt" d="m919.4706 71.55912l0 0c0 -20.95203 7.043579 -37.937008 15.7323 -37.937008l0 0c4.1724854 0 8.174011 3.9969254 11.12439 11.111496c2.9503784 7.114567 4.60791 16.763992 4.60791 26.825512l0 0c0 20.952034 -7.043579 37.93701 -15.7323 37.93701l0 0c-8.688721 0 -15.7323 -16.984978 -15.7323 -37.93701z" fill-rule="nonzero"></path><path fill="#cc4125" d="m919.4706 219.00496l0 0c0 -20.952026 7.043579 -37.936996 15.7323 -37.936996l0 0c4.1724854 0 8.174011 3.9969177 11.12439 11.111481c2.9503784 7.1145782 4.60791 16.764008 4.60791 26.825516l0 0c0 20.952042 -7.043579 37.937027 -15.7323 37.937027l0 0c-8.688721 0 -15.7323 -16.984985 -15.7323 -37.937027z" fill-rule="nonzero"></path><path stroke="#595959" stroke-width="1.0" stroke-linejoin="round" stroke-linecap="butt" d="m919.4706 219.00496l0 0c0 -20.952026 7.043579 -37.936996 15.7323 -37.936996l0 0c4.1724854 0 8.174011 3.9969177 11.12439 11.111481c2.9503784 7.1145782 4.60791 16.764008 4.60791 26.825516l0 0c0 20.952042 -7.043579 37.937027 -15.7323 37.937027l0 0c-8.688721 0 -15.7323 -16.984985 -15.7323 -37.937027z" fill-rule="nonzero"></path><path fill="#cc4125" d="m919.4706 439.1048l0 0c0 -20.952026 7.043579 -37.93701 15.7323 -37.93701l0 0c4.1724854 0 8.174011 3.9969482 11.12439 11.111511c2.9503784 7.114563 4.60791 16.763977 4.60791 26.8255l0 0c0 20.952057 -7.043579 37.93701 -15.7323 37.93701l0 0c-8.688721 0 -15.7323 -16.984955 -15.7323 -37.93701z" fill-rule="nonzero"></path><path stroke="#595959" stroke-width="1.0" stroke-linejoin="round" stroke-linecap="butt" d="m919.4706 439.1048l0 0c0 -20.952026 7.043579 -37.93701 15.7323 -37.93701l0 0c4.1724854 0 8.174011 3.9969482 11.12439 11.111511c2.9503784 7.114563 4.60791 16.763977 4.60791 26.8255l0 0c0 20.952057 -7.043579 37.93701 -15.7323 37.93701l0 0c-8.688721 0 -15.7323 -16.984955 -15.7323 -37.93701z" fill-rule="nonzero"></path><path fill="#000000" fill-opacity="0.0" d="m624.4323 117.01772l131.05511 129.16534" fill-rule="nonzero"></path><path stroke="#595959" stroke-width="1.0" stroke-linejoin="round" stroke-linecap="butt" d="m624.4323 117.01772l128.61426 126.7597" fill-rule="evenodd"></path><path fill="#595959" stroke="#595959" stroke-width="1.0" stroke-linecap="butt" d="m753.04663 243.77742l-1.5903931 0.011550903l2.9899902 1.3679199l-1.4111938 -2.9698334z" fill-rule="evenodd"></path><path fill="#ff9900" d="m750.8944 268.61795l0 0c0 -17.533966 7.043579 -31.748047 15.732239 -31.748047l0 0c4.1724854 0 8.174072 3.3448792 11.124451 9.298782c2.9503784 5.9539185 4.607849 14.02916 4.607849 22.449265l0 0c0 17.533936 -7.043579 31.748016 -15.7323 31.748016l0 0c-8.68866 0 -15.732239 -14.214081 -15.732239 -31.748016z" fill-rule="nonzero"></path><path stroke="#595959" stroke-width="1.0" stroke-linejoin="round" stroke-linecap="butt" d="m750.8944 268.61795l0 0c0 -17.533966 7.043579 -31.748047 15.732239 -31.748047l0 0c4.1724854 0 8.174072 3.3448792 11.124451 9.298782c2.9503784 5.9539185 4.607849 14.02916 4.607849 22.449265l0 0c0 17.533936 -7.043579 31.748016 -15.7323 31.748016l0 0c-8.68866 0 -15.732239 -14.214081 -15.732239 -31.748016z" fill-rule="nonzero"></path><path fill="#000000" fill-opacity="0.0" d="m785.3881 283.23654l131.05511 129.16534" fill-rule="nonzero"></path><path stroke="#595959" stroke-width="1.0" stroke-linejoin="round" stroke-linecap="butt" d="m785.3881 283.23654l128.61426 126.759735" fill-rule="evenodd"></path><path fill="#595959" stroke="#595959" stroke-width="1.0" stroke-linecap="butt" d="m914.0024 409.99625l-1.590332 0.011566162l2.9899902 1.3678894l-1.4111938 -2.969818z" fill-rule="evenodd"></path><path fill="#000000" fill-opacity="0.0" d="m782.35895 268.61795l137.10236 -197.07088" fill-rule="nonzero"></path><path stroke="#595959" stroke-width="1.0" stroke-linejoin="round" stroke-linecap="butt" d="m782.35895 268.61795l133.67584 -192.14555" fill-rule="evenodd"></path><path fill="#595959" stroke="#595959" stroke-width="1.0" stroke-linecap="butt" d="m917.3906 77.41569l1.2357788 -4.668556l-3.9475708 2.7819748z" fill-rule="evenodd"></path><path fill="#ff9900" d="m258.91656 238.88875l0 0c0 -17.53395 7.043579 -31.748032 15.732269 -31.748032l0 0c4.172455 0 8.174042 3.344864 11.12442 9.298782c2.9503784 5.953903 4.6078796 14.029144 4.6078796 22.44925l0 0c0 17.53395 -7.043579 31.748032 -15.7323 31.748032l0 0c-8.68869 0 -15.732269 -14.214081 -15.732269 -31.748032z" fill-rule="nonzero"></path><path stroke="#595959" stroke-width="1.0" stroke-linejoin="round" stroke-linecap="butt" d="m258.91656 238.88875l0 0c0 -17.53395 7.043579 -31.748032 15.732269 -31.748032l0 0c4.172455 0 8.174042 3.344864 11.12442 9.298782c2.9503784 5.953903 4.6078796 14.029144 4.6078796 22.44925l0 0c0 17.53395 -7.043579 31.748032 -15.7323 31.748032l0 0c-8.68869 0 -15.732269 -14.214081 -15.732269 -31.748032z" fill-rule="nonzero"></path><path fill="#000000" fill-opacity="0.0" d="m201.48514 266.0491l57.417328 -27.149612" fill-rule="nonzero"></path><path stroke="#595959" stroke-width="1.0" stroke-linejoin="round" stroke-linecap="butt" d="m201.48514 266.0491l51.993134 -24.584808" fill-rule="evenodd"></path><path fill="#595959" stroke="#595959" stroke-width="1.0" stroke-linecap="butt" d="m254.18434 242.9575l3.3964996 -3.4331055l-4.8086243 0.44667053z" fill-rule="evenodd"></path><path fill="#000000" fill-opacity="0.0" d="m285.77325 216.4395l57.417328 -134.92914" fill-rule="nonzero"></path><path stroke="#595959" stroke-width="1.0" stroke-linejoin="round" stroke-linecap="butt" d="m285.77325 216.43948l55.067963 -129.4082" fill-rule="evenodd"></path><path fill="#595959" stroke="#595959" stroke-width="1.0" stroke-linecap="butt" d="m342.36105 87.67803l0.2571106 -4.8224945l-3.2967834 3.5289917z" fill-rule="evenodd"></path><path fill="#000000" fill-opacity="0.0" d="m52.774277 238.88538l121.85828 49.606293" fill-rule="nonzero"></path><path stroke="#595959" stroke-width="1.0" stroke-linejoin="round" stroke-linecap="butt" d="m52.774277 238.88538l116.30109 47.344086" fill-rule="evenodd"></path><path fill="#595959" stroke="#595959" stroke-width="1.0" stroke-linecap="butt" d="m168.45259 287.75928l4.825943 0.18121338l-3.5804138 -3.2408752z" fill-rule="evenodd"></path><path fill="#000000" fill-opacity="0.0" d="m629.0402 219.00496l121.85828 49.606308" fill-rule="nonzero"></path><path stroke="#595959" stroke-width="1.0" stroke-linejoin="round" stroke-linecap="butt" d="m629.0402 219.00496l116.30109 47.34407" fill-rule="evenodd"></path><path fill="#595959" stroke="#595959" stroke-width="1.0" stroke-linecap="butt" d="m744.7185 267.87888l4.8259277 0.18118286l-3.5803833 -3.2408447z" fill-rule="evenodd"></path></g></svg>

